<svg id="Capa_1" enable-background="new 0 0 512 512" height="512" viewBox="0 0 512 512" width="512" xmlns="http://www.w3.org/2000/svg"><g><path d="m511.993 254.065c1.042 140.802-112.865 256.673-253.665 257.925-99.38.883-185.825-54.866-229.015-136.929-6.076-11.545 2.334-25.416 15.381-25.416h54.528c162.296 0 293.863-131.567 293.863-293.863 0-6.913 7.852-10.943 13.441-6.874 63.44 46.191 104.843 120.824 105.467 205.157z" fill="#ff9f22"/><path d="m388.494 334.586v110.182c0 2.761-2.239 5-5 5h-294.801c-24.133-20.855-44.329-46.143-59.323-74.598-6.108-11.591 2.221-25.525 15.324-25.525h54.528c32.544 0 63.853-5.291 93.113-15.058h196.159z" fill="#dd7d00"/><path d="m403.5 403.5h-308.472c-2.761 0-5-2.239-5-5v-142.641c0-117.526 88.295-216.275 205.082-229.429 34.984-3.94 78.308 1.812 86.889 6.673 9.203 5.214 18.052 10.981 26.5 17.256v348.141c.001 2.761-2.238 5-4.999 5z" fill="#d3d3d8"/><path d="m382 33.104v338.896c0 2.761-2.239 5-5 5h-338.128c-19.75-36.755-30.783-78.892-30.331-123.644 1.415-140.166 108.009-253.742 248.181-253.355 45.536.126 88.275 12.14 125.278 33.103z" fill="#ececf1"/><path d="m90.028 377h-59.684c-19.75-36.755-30.783-78.892-30.331-123.644 1.415-140.166 116.537-253.742 256.709-253.355 23.201.064 45.676 3.215 67.037 9.063-1.675-.037-3.354-.058-5.037-.063-140.172-.387-255.294 113.189-256.709 253.355-.415 41.141 11.168 80.072 28.015 114.644z" fill="#d3d3d8"/><path d="m210 315.19c0 2.761-2.239 5-5 5h-111.614c-2.761 0-5-2.239-5-5s2.239-5 5-5h111.614c2.762 0 5 2.239 5 5zm125-285h-60c-2.761 0-5 2.239-5 5 0 2.761 2.239 5 5 5h60c2.761 0 5-2.239 5-5 0-2.761-2.238-5-5-5zm0 19.81h-30c-2.761 0-5 2.239-5 5s2.239 5 5 5h30c2.761 0 5-2.239 5-5s-2.238-5-5-5zm-241.614 120.19h184.058c2.761 0 5-2.239 5-5s-2.239-5-5-5h-184.058c-2.761 0-5 2.239-5 5 0 2.762 2.239 5 5 5zm207.836 12h-207.836c-2.761 0-5 2.239-5 5s2.239 5 5 5h207.836c2.761 0 5-2.239 5-5s-2.238-5-5-5zm23.778-45h-231.614c-2.761 0-5 2.239-5 5s2.239 5 5 5h231.614c2.761 0 5-2.239 5-5s-2.238-5-5-5z" fill="#b9b9be"/><path d="m134.614 106.19c0 2.761-2.239 5-5 5h-36.228c-2.761 0-5-2.239-5-5s2.239-5 5-5h36.227c2.762 0 5.001 2.239 5.001 5zm60.386-27h-101.614c-2.761 0-5 2.239-5 5s2.239 5 5 5h101.614c2.761 0 5-2.239 5-5s-2.238-5-5-5z" fill="#8c96dd"/><path d="m231.064 267.48c0 2.761-2.238 5-5 5h-35.331l-6.017 6.016c-1.073 1.074-2.577 1.597-4.086 1.434-1.51-.167-2.861-1.012-3.674-2.294l-9.942-15.7-18.985 30.621c-.92 1.485-2.536 2.365-4.248 2.365-.256 0-.515-.02-.773-.06-1.984-.31-3.591-1.778-4.078-3.728l-12.032-48.132-16.231 27.051c-.903 1.506-2.531 2.428-4.287 2.428h-22.443c-2.762 0-5-2.239-5-5s2.238-5 5-5h19.61l20.985-34.974c1.04-1.734 3.019-2.674 5.023-2.373 2 .297 3.624 1.771 4.114 3.733l12.092 48.369 16.958-27.351c.907-1.463 2.503-2.357 4.226-2.365h.023c1.713 0 3.307.877 4.225 2.325l10.869 17.164 3.063-3.063c.938-.938 2.209-1.464 3.535-1.464h37.402c2.763-.002 5.002 2.237 5.002 4.998zm19.314-5h-1.441c-2.762 0-5 2.239-5 5s2.238 5 5 5h1.441c2.762 0 5-2.239 5-5s-2.238-5-5-5z" fill="#232e7a"/><path d="m315 293.667c-2.761 0-5-2.239-5-5v-63.333c0-2.761 2.239-5 5-5 2.761 0 5 2.239 5 5v63.333c0 2.761-2.239 5-5 5zm0 136.333c8.284 0 15 6.716 15 15v25c0 5.523-4.477 10-10 10h-10c-5.523 0-10-4.477-10-10v-25c0-8.284 6.716-15 15-15z" fill="#232e7a"/><path d="m315 460c-8.284 0-15-6.716-15-15v-110c0-8.284 6.716-15 15-15 8.284 0 15 6.716 15 15v110c0 8.284-6.716 15-15 15z" fill="#3342ae"/><path d="m315 360c-8.284 0-15-6.716-15-15v-90c0-8.284 6.716-15 15-15 8.284 0 15 6.716 15 15v90c0 8.284-6.716 15-15 15z" fill="#3d4ec6"/><path d="m330 275h-30c-2.761 0-5-2.239-5-5 0-2.761 2.239-5 5-5h30c2.761 0 5 2.239 5 5 0 2.761-2.239 5-5 5zm5 97.274v-17.63c0-2.761-2.238-5-5-5s-5 2.239-5 5v19.645c0 1.326.526 2.598 1.465 3.536 17.065 17.066 17.531 44.54 1.399 62.175h-27.864c-2.761 0-5 2.239-5 5s2.239 5 5 5h30c1.279 0 2.56-.488 3.535-1.464 20.945-20.945 21.433-54.719 1.465-76.262z" fill="#7cd2e3"/><path d="m325 450h-12.915c-2.761 0-5-2.239-5-5 0-2.761 2.239-5 5-5h12.915c2.761 0 5 2.239 5 5 0 2.761-2.239 5-5 5zm5-180c0-2.761-2.239-5-5-5h-12.915c-2.761 0-5 2.239-5 5 0 2.761 2.239 5 5 5h12.915c2.761 0 5-2.239 5-5z" fill="#a6e0ec"/></g></svg>