<svg id="Capa_1" enable-background="new 0 0 512 512" height="512" viewBox="0 0 512 512" width="512" xmlns="http://www.w3.org/2000/svg"><g><g><g><g><g><g><g><g><g><circle cx="256" cy="256" fill="#7584f2" r="256"/></g></g></g></g></g></g></g></g><path d="m508.965 295.54-209.931-209.932-80.831 90.025 52.575 52.575-142.97 11.78-37.214 127.593 143.494 143.494c7.222.612 14.531.925 21.912.925 127.938 0 233.955-93.85 252.965-216.46z" fill="#4855b7"/><path d="m271 220.782v-92.511h-30v92.511h-132.207v124.466h30v-94.466h102.207v92.511h30v-92.511h102.207v94.466h30v-124.466z" fill="#fff"/><path d="m271 220.782v-92.511h-14.88v215.022h14.88v-92.511h102.207v94.466h30v-124.466z" fill="#e9edf5"/><g><circle cx="256" cy="128.271" fill="#ffce00" r="60.597"/></g><g><path d="m316.597 128.271c0-33.426-27.065-60.529-60.477-60.594v121.188c33.412-.066 60.477-27.168 60.477-60.594z" fill="#fdba12"/></g><g><circle cx="256" cy="339.383" fill="#fe6a16" r="42.192"/></g><g><path d="m298.192 339.383c0-23.262-18.825-42.124-42.072-42.189v84.378c23.247-.065 42.072-18.927 42.072-42.189z" fill="#f24500"/></g><g><circle cx="121.973" cy="339.383" fill="#a3d4ff" r="42.192"/></g><g><circle cx="385.013" cy="339.383" fill="#65b1fc" r="42.192"/></g></g></svg>