<svg id="Capa_1" enable-background="new 0 0 512 512" height="512" viewBox="0 0 512 512" width="512" xmlns="http://www.w3.org/2000/svg"><g><g><g><g><g><g><g><g><circle cx="256" cy="256" fill="#7584f2" r="256"/></g></g></g></g></g></g></g><path d="m512 256c0-22.062-2.791-43.472-8.039-63.897l-104.823-104.824-4.125 28.891-59.299-59.299-30 63.446 94.188 94.189-16.537 13.848-141.075-141.075-21.213 21.213 139.198 139.198-18.857-.839-84.507-85.595-110.821 265.793 83.617 83.617c8.644.882 17.416 1.334 26.293 1.334 141.385 0 256-114.615 256-256z" fill="#4253ce"/><g><g><g><g><g><g><path d="m331.501 261.008 82.182-22.584c11.287-3.102 17.922-14.766 14.821-26.052-3.102-11.287-14.766-17.922-26.052-14.82l-162.485 44.651s14.616-41.825 20.852-55.192c4.949-10.607 2.107-23.125-8.098-28.858-10.205-5.733-22.54-1.755-28.858 8.098-16.758 26.133-73.018 100.443-73.018 100.443l35.676 133.281 32.526 8.907c14.109 3.864 28.998 3.857 43.104-.019l74.65-20.514z" fill="#ffdecf"/></g></g></g></g></g></g><g><g><g><g><g><g><path d="m186.519 399.975 32.526 8.907c14.109 3.864 28.998 3.857 43.104-.019l74.65-20.514-3.569-85.78-23.27 6.912-138.65 33.673z" fill="#ffcdbe"/></g></g></g></g></g></g><g><g><g><path d="m122.805 254.439h61.82v167.412h-61.82z" fill="#fff" transform="matrix(.964 -.265 .265 .964 -84.107 52.818)"/></g></g></g><g><g><g><path d="m126.146 354.474 19.944 72.575 59.61-16.381-19.544-71.12z" fill="#e9edf5"/></g></g></g><g><path d="m349.701 298.634 1.719-.472c11.002-3.023 17.469-14.393 14.446-25.394-3.023-11.002-14.393-17.47-25.394-14.446l-39.77 10.929c-11.002 3.023-17.469 14.393-14.446 25.394 2.869 10.439 13.251 16.795 23.704 14.836l-13.838 3.803c-11.837 3.253-18.796 15.486-15.543 27.323 2.892 10.523 12.88 17.191 23.379 16.256-9.044 4.006-14.041 14.131-11.34 23.957 2.974 10.822 14.158 17.185 24.98 14.211l39.121-10.751c10.822-2.974 17.184-14.158 14.21-24.98-2.531-9.208-11.006-15.188-20.144-14.934l8.942-2.457c11.837-3.253 18.796-15.486 15.543-27.323-3.092-11.255-14.3-18.099-25.569-15.952z" fill="#ffcdbe"/></g><g><path d="m309.96 309.481-13.838 3.802c-11.837 3.253-18.796 15.486-15.543 27.323 2.892 10.523 12.88 17.191 23.379 16.256-9.044 4.006-14.041 14.131-11.34 23.957 2.974 10.822 14.158 17.184 24.98 14.211l39.121-10.751c10.822-2.974 17.184-14.158 14.211-24.98-2.531-9.208-11.006-15.188-20.144-14.934l8.942-2.457c11.837-3.253 18.796-15.486 15.543-27.323-3.093-11.253-14.301-18.097-25.57-15.95l1.719-.472z" fill="#ffbeaa"/></g><g><path d="m305.714 56.871h30v63.446h-30z" fill="#fff"/></g><g><g><path d="m239.115 88.595h30v63.446h-30z" fill="#fff" transform="matrix(.707 -.707 .707 .707 -10.649 214.927)"/></g><g><path d="m355.59 105.317h63.446v30h-63.446z" fill="#fff" transform="matrix(.707 -.707 .707 .707 28.362 309.107)"/></g></g></g></svg>