<svg id="Capa_1" enable-background="new 0 0 512 512" height="512" viewBox="0 0 512 512" width="512" xmlns="http://www.w3.org/2000/svg"><path d="m512 256c0 57.902-19.223 111.314-51.635 154.203-5.234 6.926-16.791 7.932-22.687 14.284-6.045 6.511-6.446 18.352-13.133 24.206-45.03 39.418-103.998 63.307-168.545 63.307-69.328 0-132.22-27.559-178.318-72.319-4.706-4.569-4.134-11.789-8.479-16.706s-13.606-7.53-17.568-12.772c-32.412-42.889-51.635-96.301-51.635-154.203 0-141.385 114.615-256 256-256s256 114.615 256 256z" fill="#2e4c89"/><path d="m438.574 0h-365.147c-12.03 0-21.782 9.752-21.782 21.781v149.746c0 12.029 9.752 21.781 21.781 21.781v19.266c0 1.397 1.689 2.096 2.677 1.109l20.375-20.375h342.095c12.029 0 21.781-9.752 21.781-21.781v-149.746c.001-12.029-9.751-21.781-21.78-21.781z" fill="#37c47a"/><path d="m95.208 171.527v-149.746c0-12.029 9.751-21.781 21.781-21.781h-43.563c-12.029 0-21.781 9.752-21.781 21.781v149.746c0 12.029 9.752 21.781 21.781 21.781v19.726c0 1.227 1.484 1.842 2.352.974l20.7-20.7h20.511c-12.03.001-21.781-9.751-21.781-21.781z" fill="#02af8e"/><path d="m416.792 104.154h-43.032c-4.142 0-7.5-3.357-7.5-7.5s3.358-7.5 7.5-7.5h43.033c4.142 0 7.5 3.357 7.5 7.5s-3.358 7.5-7.501 7.5z" fill="#fff"/><path d="m343.76 104.154h-99.177c-4.142 0-7.5-3.357-7.5-7.5s3.358-7.5 7.5-7.5h99.177c4.142 0 7.5 3.357 7.5 7.5s-3.358 7.5-7.5 7.5z" fill="#fff"/><path d="m373.76 158.607h-129.177c-4.142 0-7.5-3.357-7.5-7.5s3.358-7.5 7.5-7.5h129.177c4.142 0 7.5 3.357 7.5 7.5s-3.358 7.5-7.5 7.5z" fill="#fff"/><path d="m416.792 49.701h-172.21c-4.142 0-7.5-3.357-7.5-7.5s3.358-7.5 7.5-7.5h172.21c4.142 0 7.5 3.357 7.5 7.5s-3.357 7.5-7.5 7.5z" fill="#fff"/><path d="m460.355 268.142c0-12.029-9.752-21.781-21.781-21.781h-365.147c-12.029 0-21.781 9.752-21.781 21.781v142.054c7.923 10.484 16.637 20.335 26.049 29.473h337.828l9.015 9.015c13.21-11.564 25.219-24.462 35.818-38.488v-142.054z" fill="#52bbef"/><path d="m116.989 246.36h-43.562c-12.029 0-21.781 9.752-21.781 21.781v142.054c7.923 10.484 16.637 20.335 26.049 29.473h39.295c-12.029 0-21.781-9.752-21.781-21.781v-149.745c-.001-12.03 9.751-21.782 21.78-21.782z" fill="#1e99d6"/><g fill="#fff"><path d="m290.809 350.515h-195.553c-4.142 0-7.5-3.357-7.5-7.5s3.358-7.5 7.5-7.5h195.553c4.142 0 7.5 3.357 7.5 7.5s-3.358 7.5-7.5 7.5z"/><path d="m290.809 404.968h-152.521c-4.142 0-7.5-3.357-7.5-7.5s3.358-7.5 7.5-7.5h152.521c4.142 0 7.5 3.357 7.5 7.5s-3.358 7.5-7.5 7.5z"/><path d="m290.809 296.062h-107.142c-4.142 0-7.5-3.357-7.5-7.5s3.358-7.5 7.5-7.5h107.142c4.142 0 7.5 3.357 7.5 7.5s-3.358 7.5-7.5 7.5z"/><path d="m153.667 296.062h-58.411c-4.142 0-7.5-3.357-7.5-7.5s3.358-7.5 7.5-7.5h58.411c4.142 0 7.5 3.357 7.5 7.5s-3.358 7.5-7.5 7.5z"/><path d="m204.583 158.167c-1.919 0-3.839-.732-5.303-2.196l-34.84-34.84c-2.929-2.93-2.929-7.678 0-10.607 2.929-2.928 7.678-2.928 10.606 0l34.84 34.84c2.929 2.93 2.929 7.678 0 10.607-1.465 1.464-3.384 2.196-5.303 2.196z"/><path d="m149.709 158.607c-34.161 0-61.953-27.792-61.953-61.953s27.792-61.953 61.953-61.953 61.953 27.792 61.953 61.953-27.792 61.953-61.953 61.953zm0-108.906c-25.89 0-46.953 21.063-46.953 46.953s21.063 46.953 46.953 46.953 46.953-21.063 46.953-46.953-21.063-46.953-46.953-46.953z"/><path d="m330.807 404.97c-.887 0-1.789-.158-2.668-.493-3.871-1.475-5.813-5.808-4.339-9.678l40.894-107.372c.021-.058.044-.113.067-.17 1.537-3.759 5.154-6.19 9.216-6.195h.011c4.057 0 7.674 2.423 9.218 6.176.028.067.055.137.082.205l40.522 107.377c1.462 3.876-.494 8.203-4.369 9.665-3.876 1.462-8.203-.494-9.665-4.368l-35.81-94.89-36.148 94.91c-1.14 2.993-3.989 4.833-7.011 4.833z"/><path d="m404.245 378.227h-60.683c-4.142 0-7.5-3.357-7.5-7.5s3.358-7.5 7.5-7.5h60.683c4.142 0 7.5 3.357 7.5 7.5s-3.358 7.5-7.5 7.5z"/></g></svg>