<svg id="Capa_1" enable-background="new 0 0 501 501" height="512" viewBox="0 0 501 501" width="512" xmlns="http://www.w3.org/2000/svg"><path d="m426.968 425.984c-44.564 43.424-105.607 70.016-172.861 69.508-134.315-1.014-243.347-111.122-243.107-245.441.243-135.103 109.84-244.551 245-244.551 66.543 0 126.891 26.529 171.042 69.588 3.021 2.946 3.091 7.757.257 10.883-39.435 43.486-63.462 101.201-63.462 164.529 0 63.327 24.026 121.042 63.46 164.527 2.862 3.156 2.723 7.984-.329 10.957z" fill="#003278"/><path d="m140 121.5v285c0 11.046-8.954 20-20 20h-100c-11.046 0-20-8.954-20-20v-285c0-11.046 8.954-20 20-20h100c11.046 0 20 8.954 20 20z" fill="#acd1fd"/><path d="m450.499 101.5c31.675 41.285 50.501 92.944 50.501 149 0 69.07-28.582 131.463-74.562 176h-366.438c-11.046 0-20-8.954-20-20v-305z" fill="#c7eefd"/><path d="m210 94.5v34h-210v-34c0-11.046 8.954-20 20-20h170c11.046 0 20 8.954 20 20z" fill="#0266eb"/><path d="m468.512 128.5h-428.512v-34c0-11.046 8.954-20 20-20h366.438c16.41 15.895 30.604 34.064 42.074 54z" fill="#0494fb"/><path d="m50 104.5c0 5.523-4.477 10-10 10s-10-4.477-10-10 4.477-10 10-10 10 4.477 10 10zm20-10c-5.523 0-10 4.477-10 10s4.477 10 10 10 10-4.477 10-10-4.477-10-10-10zm30 0c-5.523 0-10 4.477-10 10s4.477 10 10 10 10-4.477 10-10-4.477-10-10-10z" fill="#81bdfd"/><path d="m280 244.5v-50c0-2.761 2.239-5 5-5h208.345c4.918 19.193 7.57 39.293 7.652 60h-215.997c-2.761 0-5-2.239-5-5zm0 70v50c0 2.761 2.239 5 5 5h185.209c10.377-18.64 18.392-38.774 23.64-60h-208.849c-2.761 0-5 2.239-5 5z" fill="#acd1fd"/><path d="m300 219.5c0-5.523 4.477-10 10-10h60c5.523 0 10 4.477 10 10s-4.477 10-10 10h-60c-5.523 0-10-4.477-10-10zm70 50h-60c-5.523 0-10 4.477-10 10s4.477 10 10 10h60c5.523 0 10-4.477 10-10s-4.477-10-10-10zm0 60h-60c-5.523 0-10 4.477-10 10s4.477 10 10 10h60c5.523 0 10-4.477 10-10s-4.477-10-10-10z" fill="#0494fb"/><path d="m410 219.5c0-5.523 4.477-10 10-10h40c5.523 0 10 4.477 10 10s-4.477 10-10 10h-40c-5.523 0-10-4.477-10-10zm50 110h-40c-5.523 0-10 4.477-10 10s4.477 10 10 10h40c5.523 0 10-4.477 10-10s-4.477-10-10-10zm0-60h-40c-5.523 0-10 4.477-10 10s4.477 10 10 10h40c5.523 0 10-4.477 10-10s-4.477-10-10-10z" fill="#81bdfd"/><path d="m30 279.5c0-57.99 47.01-105 105-105s105 47.01 105 105c0 37.287-19.436 70.034-48.73 88.664-16.983-6.83-36.08-10.664-56.27-10.664s-39.287 3.834-56.27 10.664c-29.294-18.63-48.73-51.377-48.73-88.664z" fill="#01988c"/><path d="m240 279.5c0 21.136-6.245 40.813-16.991 57.287-16.474 10.745-36.151 16.991-57.287 16.991-57.99 0-105-47.01-105-105 0-21.136 6.245-40.813 16.991-57.287 16.474-10.746 36.151-16.991 57.287-16.991 57.99 0 105 47.01 105 105z" fill="#04d481"/><path d="m135 384.5c21.195 0 40.923-6.28 57.425-17.081l-3.443-19.672c-3.681-21.032-21.944-36.377-43.296-36.377h-21.373c-21.352 0-39.615 15.345-43.296 36.377l-3.443 19.672c16.503 10.801 36.231 17.081 57.426 17.081z" fill="#acd1fd"/><path d="m189.562 351.059c-7.659 1.778-15.639 2.719-23.84 2.719-28.237 0-53.871-11.146-72.741-29.279 8.032-8.159 19.182-13.128 31.332-13.128h21.373c21.352 0 39.615 15.344 43.296 36.377zm-69.602-56.525c8.878 6.075 21.201 6.075 30.079 0 13.055-8.934 21.912-26.279 21.912-42.594 0-12.043-4.826-21.214-12.604-27.471-13.807-11.107-34.889-11.107-48.696 0-7.778 6.257-12.604 15.428-12.604 27.471.002 16.315 8.858 33.66 21.913 42.594z" fill="#fff5f5"/></svg>