<svg height="512pt" viewBox="-11 0 512 512" width="512pt" xmlns="http://www.w3.org/2000/svg"><path d="m449.703125 401.632812c25.464844-38.636718 40.300781-84.898437 40.300781-134.632812 0-135.3125-109.691406-245.003906-245.003906-245.003906-135.308594 0-245 109.691406-245 245.003906 0 49.734375 14.835938 95.996094 40.296875 134.632812zm0 0" fill="#4e2aa5"/><path d="m450.363281 244.902344c-2.769531.757812-5.683593 1.171875-8.691406 1.171875-18.105469 0-32.78125-14.671875-32.78125-32.777344 0 18.105469-14.671875 32.777344-32.777344 32.777344-18.101562 0-32.777343-14.671875-32.777343-32.777344 0 18.105469-14.675782 32.777344-32.777344 32.777344-18.105469 0-32.777344-14.671875-32.777344-32.777344 0 18.105469-14.675781 32.777344-32.777344 32.777344-18.105468 0-32.78125-14.671875-32.78125-32.777344 0 18.105469-14.671875 32.777344-32.777344 32.777344-18.101562 0-32.777343-14.671875-32.777343-32.777344 0 18.105469-14.675781 32.777344-32.777344 32.777344-18.105469 0-32.777344-14.671875-32.777344-32.777344 0 18.105469-14.675781 32.777344-32.777343 32.777344-3.011719 0-5.925782-.414063-8.695313-1.171875v155.730468c13.183594 20.21875 29.273437 38.371094 47.675781 53.863282h315.371094c18.40625-15.492188 34.492188-33.640625 47.679688-53.863282v-155.730468zm0 0" fill="#e6fcff"/><path d="m113.886719 246.078125c-18.101563 0-32.777344-14.675781-32.777344-32.777344 0 18.101563-14.675781 32.777344-32.777344 32.777344-3.011719 0-5.925781-.414063-8.691406-1.175781v155.730468c13.183594 20.222657 29.273437 38.371094 47.675781 53.863282h26.574219v-208.417969zm0 0" fill="#ccebff"/><path d="m309.09375 455.546875h-128.183594v-147.519531h128.183594zm-12.242188-129.644531h.007813zm0 0" fill="#4070ea"/><path d="m220.398438 455.546875h-39.488282v-147.519531h39.488282zm-3.773438-129.644531h.003906zm0 0" fill="#205dd9"/><path d="m196.679688 325.902344h96.640624v111.769531h-96.640624zm0 0" fill="#5f83fa"/><path d="m196.679688 325.902344h23.71875v111.769531h-23.71875zm0 0" fill="#4070ea"/><path d="m301.207031 389.847656h-112.410156c-4.359375 0-7.886719-3.53125-7.886719-7.886718 0-4.355469 3.527344-7.886719 7.886719-7.886719h112.410156c4.355469 0 7.886719 3.53125 7.886719 7.886719 0 4.355468-3.53125 7.886718-7.886719 7.886718zm0 0" fill="#4070ea"/><path d="m188.796875 389.847656h31.597656v-15.773437h-31.597656c-4.355469 0-7.886719 3.53125-7.886719 7.886719 0 4.355468 3.53125 7.886718 7.886719 7.886718zm0 0" fill="#205dd9"/><path d="m220.398438 397.382812c-4.359376 0-7.886719-3.53125-7.886719-7.886718v-15.417969c0-4.355469 3.527343-7.886719 7.886719-7.886719 4.355468 0 7.882812 3.53125 7.882812 7.886719v15.417969c0 4.355468-3.527344 7.886718-7.882812 7.886718zm0 0" fill="#8cecf8"/><path d="m142.308594 277.757812h-56.839844c-2.40625 0-4.359375 1.953126-4.359375 4.355469v105.355469c.023437 0 .042969-.003906.066406-.003906h65.425781c.019532 0 .042969.003906.066407.003906v-105.355469c-.003907-2.40625-1.953125-4.355469-4.359375-4.355469zm0 0" fill="#8cecf8"/><path d="m113.886719 282.113281c0-2.402343 1.953125-4.355469 4.359375-4.355469h-32.777344c-2.40625 0-4.359375 1.953126-4.359375 4.355469v105.355469c.023437 0 .042969-.003906.066406-.003906h32.714844v-105.351563zm0 0" fill="#51e0f4"/><path d="m146.601562 387.464844c.019532 0 .042969.003906.066407.003906v-.003906zm0 0" fill="#51e0f4"/><path d="m403.929688 453.445312h-317.859376c13.117188 11.1875 27.417969 21.023438 42.703126 29.277344h232.457031c15.285156-8.253906 29.585937-18.089844 42.699219-29.277344zm0 0" fill="#8cecf8"/><path d="m219.5625 453.445312h-133.492188c13.117188 11.1875 27.417969 21.023438 42.703126 29.277344h91.082031c-2.457031 0-4.886719-.605468-7.035157-1.804687-13.945312-7.816407-7.917968-27.472657 6.742188-27.472657zm0 0" fill="#51e0f4"/><path d="m251.695312 511.90625c40.28125-1.082031 78.132813-11.890625 111.304688-30.15625h-235.996094c33.167969 18.265625 71.019532 29.074219 111.300782 30.15625.285156.007812.574218.015625.859374.019531 1.941407.046875 3.886719.074219 5.835938.074219s3.894531-.027344 5.835938-.074219c.289062-.003906.574218-.011719.859374-.019531zm0 0" fill="#a5c013"/><path d="m214.253906 481.75h-87.25c26.0625 14.351562 55.019532 24.097656 85.773438 28.140625-13.742188-4.402344-12.546875-25.183594 1.476562-28.140625zm0 0" fill="#8dae16"/><path d="m155.304688 42.6875h-60.113282l-11.976562 144.746094h65.554687zm0 0" fill="#f4b500"/><path d="m152.308594 109.027344 2.996094-66.339844h-60.113282l-5.492187 66.339844zm0 0" fill="#ee9d00"/><path d="m83.214844 187.433594v31.121094c0 18.105468 14.671875 32.78125 32.777344 32.78125 18.101562 0 32.777343-14.675782 32.777343-32.78125v-31.121094zm0 0" fill="#ffe600"/><path d="m147.71875 187.433594v31.121094c0 18.105468 14.675781 32.78125 32.777344 32.78125 18.101562 0 32.777344-14.675782 32.777344-32.78125v-31.121094zm0 0" fill="#fe4675"/><path d="m216.539062 42.6875h-62.289062l-6.53125 144.746094h65.554688zm0 0" fill="#ec3969"/><path d="m215.042969 109.027344 1.496093-66.339844h-62.289062l-2.992188 66.339844zm0 0" fill="#da2c5d"/><path d="m212.222656 187.433594v31.121094c0 18.105468 14.675782 32.78125 32.777344 32.78125 18.105469 0 32.777344-14.675782 32.777344-32.78125v-31.121094zm0 0" fill="#ffe600"/><path d="m274.511719 42.6875h-59.023438l-3.265625 144.746094h65.554688zm0 0" fill="#f4b500"/><path d="m276.011719 109.027344-1.5-66.339844h-59.023438l-1.496093 66.339844zm0 0" fill="#ee9d00"/><path d="m471.292969 187.433594v31.121094c0 18.105468-14.675781 32.78125-32.777344 32.78125s-32.777344-14.675782-32.777344-32.78125v-31.121094zm0 0" fill="#fe4675"/><path d="m33.496094 57.847656-14.789063 129.585938h65.558594l11.976563-144.746094h-45.964844c-8.652344 0-15.902344 6.550781-16.78125 15.160156zm0 0" fill="#ec3969"/><path d="m58.941406 109.027344h31.8125l5.488282-66.339844h-45.964844c-8.652344 0-15.902344 6.550781-16.78125 15.160156l-8.730469 76.519532c4.476563-14.625 18.132813-25.339844 34.175781-25.339844zm0 0" fill="#da2c5d"/><path d="m23.207031 148-4.5 39.433594h4.5zm0 0" fill="#da2c5d"/><path d="m456.503906 57.847656c-.875-8.613281-8.125-15.160156-16.78125-15.160156h-45.960937l11.976562 144.746094h65.558594zm0 0" fill="#ec3969"/><path d="m431.058594 109.027344c16.042968 0 29.699218 10.714844 34.179687 25.335937l-8.734375-76.515625c-.875-8.609375-8.125-15.160156-16.78125-15.160156h-45.960937l5.488281 66.339844zm0 0" fill="#da2c5d"/><path d="m406.789062 187.433594v31.121094c0 18.105468-14.675781 32.78125-32.777343 32.78125-18.105469 0-32.777344-14.675782-32.777344-32.78125v-31.121094zm0 0" fill="#ffe600"/><path d="m334.699219 42.6875h60.113281l11.976562 144.746094h-65.554687zm0 0" fill="#f4b500"/><path d="m400.300781 109.027344-5.488281-66.339844h-60.113281l2.996093 66.339844zm0 0" fill="#ee9d00"/><path d="m342.285156 187.433594v31.121094c0 18.105468-14.675781 32.78125-32.777344 32.78125-18.105468 0-32.78125-14.675782-32.78125-32.78125v-31.121094zm0 0" fill="#fe4675"/><path d="m273.460938 42.6875h62.289062l6.535156 144.746094h-65.558594zm0 0" fill="#ec3969"/><path d="m338.746094 109.027344-2.996094-66.339844h-62.289062l1.496093 66.339844zm0 0" fill="#da2c5d"/><path d="m387.675781 0h-285.351562c-5.101563 0-9.234375 4.136719-9.234375 9.238281v64.570313h303.824218v-64.570313c0-5.101562-4.136718-9.238281-9.238281-9.238281zm0 0" fill="#e6fcff"/><path d="m189.734375 0h-87.410156c-5.101563 0-9.238281 4.136719-9.238281 9.238281v64.570313h87.410156v-64.570313c0-5.101562 4.136718-9.238281 9.238281-9.238281zm0 0" fill="#ccebff"/><path d="m291.71875 44.789062h-93.433594c-4.355468 0-7.886718-3.53125-7.886718-7.886718 0-4.351563 3.53125-7.882813 7.886718-7.882813h93.433594c4.355469 0 7.886719 3.53125 7.886719 7.882813 0 4.355468-3.53125 7.886718-7.886719 7.886718zm0 0" fill="#ccebff"/><path d="m160.605469 44.789062h-27.878907c-4.355468 0-7.886718-3.53125-7.886718-7.886718 0-4.351563 3.53125-7.882813 7.886718-7.882813h27.878907c4.355469 0 7.886719 3.53125 7.886719 7.882813 0 4.355468-3.53125 7.886718-7.886719 7.886718zm0 0" fill="#b8dff4"/><path d="m357.273438 44.789062h-27.875c-4.359376 0-7.886719-3.53125-7.886719-7.886718 0-4.351563 3.527343-7.882813 7.886719-7.882813h27.875c4.359374 0 7.886718 3.53125 7.886718 7.882813 0 4.355468-3.53125 7.886718-7.886718 7.886718zm0 0" fill="#ccebff"/><path d="m397.851562 71.425781c-64.242187 0-237.292968 0-308.855468 0-4.355469 0-7.886719 3.53125-7.886719 7.886719s3.53125 7.886719 7.886719 7.886719h308.855468c4.355469 0 7.886719-3.53125 7.886719-7.886719s-3.53125-7.886719-7.886719-7.886719zm0 0" fill="#d9f3ff"/><path d="m172.386719 79.3125c0-4.355469 3.527343-7.886719 7.882812-7.886719-36.113281 0-68.730469 0-91.273437 0-4.355469 0-7.886719 3.53125-7.886719 7.886719s3.53125 7.886719 7.886719 7.886719h91.273437c-4.355469 0-7.882812-3.53125-7.882812-7.886719zm0 0" fill="#b8dff4"/><path d="m142.308594 277.757812h-56.839844c-2.40625 0-4.359375 1.953126-4.359375 4.355469v24.035157h65.558594v-24.035157c-.003907-2.40625-1.953125-4.355469-4.359375-4.355469zm0 0" fill="#51e0f4"/><path d="m118.246094 277.757812h-32.777344c-2.40625 0-4.359375 1.953126-4.359375 4.355469v24.035157h32.777344v-24.035157c0-2.40625 1.953125-4.355469 4.359375-4.355469zm0 0" fill="#15d4f0"/><path d="m160.796875 399.554688c0-7.839844-6.355469-14.195313-14.195313-14.195313h-65.425781c-7.839843 0-14.195312 6.355469-14.195312 14.195313 0 7.839843 6.355469 14.195312 14.195312 14.195312h65.425781c7.839844 0 14.195313-6.355469 14.195313-14.195312zm0 0" fill="#5f83fa"/><path d="m101.863281 399.554688c0-7.839844 6.355469-14.195313 14.195313-14.195313h-34.882813c-7.839843 0-14.195312 6.355469-14.195312 14.195313 0 7.839843 6.355469 14.195312 14.195312 14.195312h34.882813c-7.839844 0-14.195313-6.355469-14.195313-14.195312zm0 0" fill="#4070ea"/><path d="m304.125 277.757812h-118.246094c-2.746094 0-4.96875 2.226563-4.96875 4.96875v27.402344h128.183594v-27.402344c0-2.746093-2.226562-4.96875-4.96875-4.96875zm0 0" fill="#51e0f4"/><path d="m225.363281 277.757812h-39.484375c-2.746094 0-4.96875 2.226563-4.96875 4.96875v27.402344h39.484375v-27.402344c.003907-2.746093 2.226563-4.96875 4.96875-4.96875zm0 0" fill="#15d4f0"/><path d="m18.707031 187.433594v31.121094c0 18.105468 14.675781 32.78125 32.777344 32.78125 18.105469 0 32.78125-14.675782 32.78125-32.78125v-31.121094zm0 0" fill="#fe4675"/><path d="m404.535156 277.757812h-56.84375c-2.40625 0-4.355468 1.953126-4.355468 4.355469v105.355469c.019531 0 .042968-.003906.066406-.003906h65.421875c.023437 0 .042969.003906.066406.003906v-105.355469c0-2.40625-1.949219-4.355469-4.355469-4.355469zm0 0" fill="#8cecf8"/><g fill="#51e0f4"><path d="m376.113281 282.113281c0-2.402343 1.953125-4.355469 4.359375-4.355469h-32.78125c-2.40625 0-4.355468 1.953126-4.355468 4.355469v105.355469c.019531 0 .042968-.003906.066406-.003906h32.710937zm0 0"/><path d="m408.828125 387.464844c.019531 0 .042969.003906.066406.003906v-.003906zm0 0"/><path d="m404.535156 277.757812h-56.84375c-2.40625 0-4.355468 1.953126-4.355468 4.355469v24.035157h65.554687v-24.035157c0-2.40625-1.949219-4.355469-4.355469-4.355469zm0 0"/></g><path d="m380.472656 277.757812h-32.78125c-2.40625 0-4.355468 1.953126-4.355468 4.355469v24.035157h32.777343v-24.035157c0-2.40625 1.953125-4.355469 4.359375-4.355469zm0 0" fill="#15d4f0"/><path d="m423.019531 399.554688c0-7.839844-6.355469-14.195313-14.191406-14.195313h-65.425781c-7.839844 0-14.195313 6.355469-14.195313 14.195313 0 7.839843 6.355469 14.195312 14.195313 14.195312h65.421875c7.839843 0 14.195312-6.355469 14.195312-14.195312zm0 0" fill="#5f83fa"/><path d="m364.089844 399.554688c0-7.839844 6.351562-14.195313 14.191406-14.195313h-34.878906c-7.839844 0-14.195313 6.355469-14.195313 14.195313 0 7.839843 6.355469 14.195312 14.195313 14.195312h34.878906c-7.839844 0-14.191406-6.355469-14.191406-14.195312zm0 0" fill="#4070ea"/></svg>