<svg viewBox="-11 0 512 512" xmlns="http://www.w3.org/2000/svg"><path d="m490 267c0 135.308594-109.691406 245-245 245s-245-109.691406-245-245 109.691406-245 245-245 245 109.691406 245 245zm0 0" fill="#f87eab"/><path d="m279.277344 14.828125h-42.65625c-6.746094-9.003906-17.503906-14.828125-29.621094-14.828125h-73c-20.433594 0-37 16.566406-37 37v167c0 20.433594 16.566406 37 37 37h32.367188c-22.558594-12.453125-38.8125-34.964844-42.671876-61.445312-8.308593-2.621094-14.347656-10.394532-14.347656-19.554688v-26c0-11.304688 9.195313-20.5 20.5-20.5h51c4.617188 0 8.90625 1.5625 12.359375 4.191406 14.441407-5.542968 25.089844-13.738281 32.445313-21.105468 12.144531-12.175782 17.769531-24.183594 19.011718-27.066407h42.507813c2.046875 0 3.714844 1.667969 3.714844 3.71875v41.535157c7.839843 2.878906 13.460937 10.398437 13.460937 19.226562v26c0 9.160156-6.042968 16.9375-14.347656 19.554688-3.863281 26.480468-20.117188 48.996093-42.675781 61.445312h31.953125c19.175781 0 34.722656-15.546875 34.722656-34.722656v-156.722656c0-19.179688-15.546875-34.726563-34.722656-34.726563zm0 0" fill="#a5683f"/><path d="m112 204v-32.027344c-2.304688-3.425781-3.652344-7.542968-3.652344-11.972656v-26c0-4.429688 1.347656-8.546875 3.652344-11.972656v-85.027344c0-20.433594 16.566406-37 37-37h-15c-20.433594 0-37 16.566406-37 37v167c0 20.433594 16.566406 37 37 37h15c-20.433594 0-37-16.566406-37-37zm0 0" fill="#8e5935"/><path d="m409.617188 247h-3.164063v1.136719c0 10.730469-8.730469 19.460937-19.460937 19.460937h-11.691407c-3.945312 0-7.613281-1.1875-10.683593-3.210937v83.570312l-48.171876-71.34375c-2.480468-8.226562-10.140624-14.265625-19.148437-14.265625h-29.71875v49.71875c0 1.308594-.726563 2.480469-1.898437 3.0625-.46875.230469-.996094.355469-1.519532.355469-.742187 0-1.480468-.246094-2.070312-.695313l-39.15625-29.757812-13.042969 11.746094c-.800781.726562-1.882813 1.125-3.042969 1.125s-2.242187-.398438-3.046875-1.125l-13.039062-11.746094-6.695313 5.089844c.234375.507812.375 1.070312.375 1.667968v8.355469h19.6875c2.207032 0 4 1.796875 4 4v8.539063c0 2.207031-1.792968 4-4 4h-63.554687c-2.207031 0-4-1.792969-4-4v-8.539063c0-2.203125 1.792969-4 4-4h5.539062v-37.792969h-55.726562c-8.25 0-15 6.75-15 15v168.84375c0 8.25 6.75 15 15 15h6.011719v.585938c41.21875 31.496094 92.71875 50.21875 148.601562 50.21875 25.167969 0 49.445312-3.800781 72.296875-10.847656v-133.921875l33.601563 49.761719c4.65625 6.894531 12.398437 11.007812 20.71875 11.007812h18c13.785156 0 25-11.214844 25-25v-151c0-2.761719-2.238282-5-5-5zm0 0" fill="#293d7c"/><path d="m160.261719 300.148438v-8.359376c0-2.207031 1.792969-4 4-4h16.179687c1.984375 0 3.621094 1.453126 3.933594 3.351563l7.144531-5.425781-14.492187-13.054688c-1.832032-1.652344-3.382813-5.136718-3.382813-7.605468v-18.738282h-24.109375c-2.441406 0-4.417968 1.980469-4.417968 4.417969v49.414063zm0 0" fill="#fff"/><path d="m264.160156 246.316406h-24.109375v18.738282c0 2.46875-1.550781 5.949218-3.386719 7.601562l-14.488281 13.054688 39.308594 29.875c.785156.59375 1.730469.898437 2.675781.898437.667969 0 1.34375-.148437 1.964844-.457031 1.503906-.75 2.453125-2.28125 2.453125-3.960938v-61.332031c0-2.4375-1.976563-4.417969-4.417969-4.417969zm0 0" fill="#fff"/><path d="m160.261719 300.148438v-8.359376c0-.503906.101562-.984374.273437-1.429687v-39.625c0-2.4375 1.980469-4.417969 4.417969-4.417969h-15.421875c-2.4375 0-4.417969 1.980469-4.417969 4.417969v49.414063zm0 0" fill="#eef6ff"/><path d="m206.847656 251.417969c-12.175781 0-23.746094-2.625-34.203125-7.304688v20.941407c0 2.75 1.671875 6.503906 3.714844 8.347656l26.773437 24.121094c2.042969 1.839843 5.386719 1.839843 7.429688 0l26.773438-24.121094c2.042968-1.84375 3.714843-5.597656 3.714843-8.347656v-20.941407c-10.457031 4.683594-22.027343 7.304688-34.203125 7.304688zm0 0" fill="#ffc987"/><path d="m188 265.054688v-15.792969c-5.328125-1.226563-10.464844-2.957031-15.355469-5.144531v20.9375c0 2.75 1.671875 6.507812 3.714844 8.347656l26.773437 24.121094c2.042969 1.839843 5.386719 1.839843 7.429688 0l3.960938-3.570313-22.808594-20.550781c-2.042969-1.84375-3.714844-5.597656-3.714844-8.347656zm0 0" fill="#f4b978"/><g fill="#ffe2b8"><path d="m283.847656 180.5h-51c-11.304687 0-20.5-9.195312-20.5-20.5v-13.5h-11v13.5c0 11.304688-9.195312 20.5-20.5 20.5h-51c-2.539062 0-4.960937-.484375-7.203125-1.332031 5.757813 41.328125 41.3125 73.25 84.203125 73.25 42.886719 0 78.441406-31.921875 84.203125-73.25-2.246093.847656-4.664062 1.332031-7.203125 1.332031zm0 0"/><path d="m201.273438 132.570312.066406.929688h11.015625l.066406-.929688c.742187-10.695312 9.714844-19.070312 20.425781-19.070312h51c2.851563 0 5.566406.589844 8.039063 1.644531v-41.910156c0-2.601563-2.113281-4.714844-4.71875-4.714844h-43.167969s-13.515625 34.175781-51.734375 48.507813c5.0625 3.425781 8.558594 9.050781 9.007813 15.542968zm0 0"/><path d="m283.847656 126.5h-51c-4.136718 0-7.5 3.363281-7.5 7.5v26c0 4.136719 3.363282 7.5 7.5 7.5h51c4.136719 0 7.5-3.363281 7.5-7.5v-26c0-4.136719-3.363281-7.5-7.5-7.5zm0 0"/><path d="m129.847656 167.5h51c4.136719 0 7.5-3.363281 7.5-7.5v-26c0-4.136719-3.363281-7.5-7.5-7.5h-51c-4.136718 0-7.5 3.363281-7.5 7.5v26c0 4.136719 3.363282 7.5 7.5 7.5zm0 0"/></g><path d="m129.847656 127.5c-3.582031 0-6.5 2.914062-6.5 6.5v26c0 3.585938 2.917969 6.5 6.5 6.5h7.074219v-39zm0 0" fill="#ffc987"/><path d="m138.117188 181.5h-8.269532c-2.476562 0-4.847656-.441406-7.0625-1.21875 6.234375 40.789062 41.558594 72.136719 84.0625 72.136719 2.546875 0 5.0625-.132813 7.554688-.351563-38.65625-3.421875-69.945313-32.8125-76.285156-70.566406zm0 0" fill="#ffc987"/><path d="m173.933594 153.199219c0 6.496093-5.261719 11.757812-11.753906 11.757812-6.492188 0-11.753907-5.261719-11.753907-11.757812v-11.753907c0-6.492187 5.261719-11.753906 11.753907-11.753906 6.492187 0 11.753906 5.261719 11.753906 11.753906zm0 0" fill="#293d7c"/><path d="m263.269531 153.199219c0 6.496093-5.261719 11.757812-11.753906 11.757812s-11.757813-5.261719-11.757813-11.757812v-11.753907c0-6.492187 5.265626-11.753906 11.757813-11.753906s11.753906 5.261719 11.753906 11.753906zm0 0" fill="#293d7c"/><path d="m206.847656 226.496094c-11.152344 0-22.304687-4.242188-30.796875-12.734375-2.929687-2.925781-2.929687-7.675781 0-10.605469 2.929688-2.929688 7.679688-2.929688 10.609375 0 11.128906 11.128906 29.242188 11.128906 40.375 0 2.929688-2.929688 7.675782-2.929688 10.605469 0s2.929687 7.679688 0 10.605469c-8.492187 8.492187-19.644531 12.734375-30.792969 12.734375zm0 0" fill="#ff9f60"/><path d="m216.546875 173.980469h-9.488281v-23.25c0-1.15625-.273438-2.25-.742188-3.230469h-3.96875v12.5c0 7.746094-4.128906 14.523438-10.289062 18.3125v.167969c0 5.789062 4.710937 10.5 10.5 10.5h15.222656c4.140625 0 7.5-3.359375 7.5-7.5 0-.492188-.050781-.96875-.140625-1.433594-3.347656-1.289063-6.292969-3.390625-8.59375-6.066406zm0 0" fill="#ff9f60"/><path d="m268.925781 112.5c.070313-.421875.117188-.855469.117188-1.296875 0-4.144531-3.355469-7.5-7.5-7.5h-20.746094c-4.140625 0-7.5 3.355469-7.5 7.5 0 .441406.046875.875.121094 1.296875zm0 0" fill="#a5683f"/><path d="m235.839844 305.324219h-27.710938v7.359375c0 2.207031-1.792968 4-4 4h-63.554687c-2.207031 0-4-1.792969-4-4v-7.359375h-27.710938c-2.75 0-5 2.25-5 5v102.980469h84.507813v-1.246094c0-2.207032 1.796875-4 4-4h5.183594l21.433593-21.433594c1.695313-1.691406 3.953125-2.625 6.367188-2.625 2.410156 0 4.671875.933594 6.363281 2.625 3.542969 3.542969 3.542969 9.253906.035156 12.761719l-8.671875 8.671875h17.757813v-97.734375c0-2.75-2.25-5-5-5zm0 0" fill="#ef9614"/><path d="m188.464844 461.195312h-84.601563v22.449219c0 2.75 2.25 5 5 5h126.976563c2.75 0 5-2.25 5-5v-19.285156h-48.46875c-1.917969 0-3.523438-1.359375-3.90625-3.164063zm0 0" fill="#ef9614"/><path d="m119 413.304688v-102.980469c0-2.75 2.25-5 5-5h-15.136719c-2.75 0-5 2.25-5 5v102.980469zm0 0" fill="#ef8318"/><path d="m119 483.644531v-22.449219h-15.136719v22.449219c0 2.75 2.25 5 5 5h15.136719c-2.75 0-5-2.25-5-5zm0 0" fill="#ef8318"/><path d="m185.441406 300.148438v-8.359376c0-2.75-2.25-5-5-5h-16.179687c-2.75 0-5 2.25-5 5v8.359376zm0 0" fill="#994334"/><path d="m168 300.148438v-8.359376c0-2.75 2.25-5 5-5h-8.738281c-2.75 0-5 2.25-5 5v8.359376zm0 0" fill="#87352a"/><path d="m209.128906 312.683594c0 2.75-2.25 5-5 5h-63.554687c-2.75 0-5-2.25-5-5v-8.535156c0-2.75 2.25-5 5-5h63.554687c2.75 0 5 2.25 5 5zm0 0" fill="#a5683f"/><path d="m151 312.683594v-8.535156c0-2.75 2.25-5 5-5h-15.425781c-2.75 0-5 2.25-5 5v8.535156c0 2.75 2.25 5 5 5h15.425781c-2.75 0-5-2.25-5-5zm0 0" fill="#8e5935"/><path d="m244.839844 407.058594h-19.34375l6.964844-6.964844c3.886718-3.890625 3.886718-10.25 0-14.140625l-.035157-.035156c-3.890625-3.890625-10.253906-3.890625-14.144531 0l-21.140625 21.140625h-4.769531c-2.75 0-5 2.25-5 5v48.300781c0 2.75 2.25 5 5 5h52.46875c2.75 0 5-2.25 5-5v-48.300781c0-2.75-2.25-5-5-5zm0 0" fill="#ffc987"/><path d="m198.445312 464.445312v-48.300781c0-2.75 2.25-5 5-5h4.769532l21.140625-21.140625c1.246093-1.246094 2.75-2.089844 4.34375-2.535156-.355469-.535156-.769531-1.046875-1.238281-1.519531l-.035157-.03125c-3.890625-3.890625-10.253906-3.890625-14.144531 0l-21.140625 21.140625h-4.769531c-2.75 0-5 2.25-5 5v48.300781c0 2.75 2.25 5 5 5h6.167968c-.054687-.296875-.09375-.601563-.09375-.914063zm0 0" fill="#f4b978"/><path d="m386.992188 193.597656c1.503906 0 2.96875.1875 4.375.515625v-168.085937c0-4.144532-3.355469-7.5-7.5-7.5-4.140626 0-7.5 3.355468-7.5 7.5v167.570312zm0 0" fill="#994334"/><path d="m386.992188 267.597656h-10.625v10.367188c0 4.144531 3.359374 7.5 7.5 7.5 4.144531 0 7.5-3.355469 7.5-7.5v-10.882813c-1.40625.324219-2.871094.515625-4.375.515625zm0 0" fill="#994334"/><path d="m375.300781 268.597656c-11.304687 0-20.460937-9.160156-20.460937-20.460937v-35.078125c0-11.296875 9.15625-20.460938 20.460937-20.460938h11.691407c11.300781 0 20.460937 9.164063 20.460937 20.460938v35.078125c0 11.300781-9.160156 20.460937-20.460937 20.460937zm0 0" fill="#ffc987"/><path d="m370 248.136719v-35.078125c0-10.710938 8.238281-19.488282 18.726562-20.371094-.574218-.050781-1.148437-.089844-1.734374-.089844h-11.691407c-11.304687 0-20.460937 9.164063-20.460937 20.460938v35.078125c0 11.300781 9.15625 20.460937 20.460937 20.460937h11.691407c.585937 0 1.160156-.039062 1.734374-.089844-10.488281-.878906-18.726562-9.65625-18.726562-20.371093zm0 0" fill="#f4b978"/><path d="m255.839844 348c0-2.75 2.25-5 5-5h30c2.75 0 5 2.25 5 5v20.5625c0 2.75-1.789063 6.367188-3.976563 8.035156l-12.054687 9.210938c-2.183594 1.671875-5.757813 1.671875-7.945313 0l-12.054687-9.210938c-2.183594-1.667968-3.972656-5.285156-3.972656-8.035156v-20.5625zm0 0" fill="#ffd00d"/><path d="m282.027344 380.808594-12.054688-9.210938c-2.1875-1.667968-3.972656-5.285156-3.972656-8.035156v-20.5625h-5.164062c-2.75 0-5 2.25-5 5v20.5625c0 2.75 1.789062 6.367188 3.972656 8.035156l12.054687 9.210938c2.1875 1.671875 5.761719 1.671875 7.945313 0l5.035156-3.84375c-1.035156-.164063-2.019531-.546875-2.816406-1.15625zm0 0" fill="#edc10a"/><path d="m283.847656 112.5h-51c-11.347656 0-20.648437 8.84375-21.421875 20h-9.152343c-.777344-11.15625-10.078126-20-21.425782-20h-51c-11.855468 0-21.5 9.644531-21.5 21.5v26c0 11.855469 9.644532 21.5 21.5 21.5h51c11.855469 0 21.5-9.644531 21.5-21.5v-12.5h9v12.5c0 11.855469 9.644532 21.5 21.5 21.5h51c11.855469 0 21.5-9.644531 21.5-21.5v-26c0-11.855469-9.644531-21.5-21.5-21.5zm-96.5 47.5c0 3.585938-2.914062 6.5-6.5 6.5h-51c-3.582031 0-6.5-2.914062-6.5-6.5v-26c0-3.585938 2.917969-6.5 6.5-6.5h51c3.585938 0 6.5 2.914062 6.5 6.5zm103 0c0 3.585938-2.914062 6.5-6.5 6.5h-51c-3.582031 0-6.5-2.914062-6.5-6.5v-26c0-3.585938 2.917969-6.5 6.5-6.5h51c3.585938 0 6.5 2.914062 6.5 6.5zm0 0" fill="#a00026"/><path d="m90.988281 446.195312v-168.84375c0-8.25 6.75-15 15-15h-15.605469c-8.25 0-15 6.75-15 15v168.84375c0 8.25 6.75 15 15 15h15.605469c-8.25 0-15-6.75-15-15zm0 0" fill="#1a2b63"/></svg>