<?xml version="1.0" encoding="UTF-8"?>
<svg xmlns="http://www.w3.org/2000/svg" xmlns:xlink="http://www.w3.org/1999/xlink" xmlns:svgjs="http://svgjs.com/svgjs" version="1.1" width="512" height="512" x="0" y="0" viewBox="0 0 512 512" style="enable-background:new 0 0 512 512" xml:space="preserve" class="">
  <circle r="256" cx="256" cy="256" fill="#2b6ea3" shape="circle"/>
  <g transform="matrix(0.7,0,0,0.7,76.80000000000001,76.80000000000001)">
    <g xmlns="http://www.w3.org/2000/svg">
      <path d="m384 208c-8.8 0-16 7.2-16 16v184c0 13.2-10.8 24-24 24h-240c-13.2 0-24-10.8-24-24v-240c0-13.2 10.8-24 24-24h167.5c8.8 0 16-7.2 16-16s-7.2-16-16-16h-167.5c-30.9 0-56 25.1-56 56v240c0 30.9 25.1 56 56 56h240c30.9 0 56-25.1 56-56v-184c0-8.8-7.2-16-16-16z" fill="#ffffff" data-original="#000000" class=""/>
      <path d="m448 48h-112c-8.8 0-16 7.2-16 16s7.2 16 16 16h73.4l-196.7 196.7c-6.2 6.2-6.2 16.4 0 22.6 3.1 3.1 7.2 4.7 11.3 4.7s8.2-1.6 11.3-4.7l196.7-196.7v73.4c0 8.8 7.2 16 16 16s16-7.2 16-16v-112c0-8.8-7.2-16-16-16z" fill="#ffffff" data-original="#000000" class=""/>
    </g>
  </g>
</svg>
