<?xml version="1.0" standalone="no"?>
<!DOCTYPE svg PUBLIC "-//W3C//DTD SVG 20010904//EN"
 "http://www.w3.org/TR/2001/REC-SVG-20010904/DTD/svg10.dtd">
<svg version="1.0" xmlns="http://www.w3.org/2000/svg"
 width="1777.000000pt" height="1777.000000pt" viewBox="0 0 1777.000000 1777.000000"
 preserveAspectRatio="xMidYMid meet">

<g transform="translate(0.000000,1777.000000) scale(0.100000,-0.100000)"
fill="#000000" stroke="none">
<path d="M8685 16762 c-48 -31 -75 -64 -391 -477 -413 -538 -2492 -3243 -2585
-3363 -41 -53 -96 -113 -122 -132 -157 -119 -196 -326 -76 -399 50 -31 93 -34
143 -13 49 22 114 94 285 317 59 77 577 752 1151 1500 1091 1422 1222 1592
1514 1972 118 153 183 230 190 224 167 -129 3288 -2601 3305 -2617 l24 -22
-274 -324 c-150 -177 -332 -393 -403 -478 -71 -85 -143 -163 -161 -172 -62
-33 -123 -120 -145 -210 -30 -118 64 -216 188 -194 44 9 147 109 312 306 58
69 267 316 465 548 198 233 365 435 372 450 7 15 12 50 13 78 0 61 -30 113
-110 192 -30 29 -807 649 -1728 1378 -920 729 -1692 1343 -1713 1364 -79 77
-196 110 -254 72z"/>
<path d="M8630 15871 c-39 -20 -151 -178 -174 -246 -38 -111 -53 -296 -32
-388 32 -137 93 -217 206 -270 59 -28 73 -31 170 -31 115 -1 120 1 358 98 62
26 117 44 123 41 26 -17 64 -121 90 -249 40 -199 78 -273 200 -396 193 -194
317 -257 449 -227 l63 15 49 -39 c27 -21 74 -70 104 -109 68 -86 149 -154 232
-193 35 -16 78 -43 95 -58 89 -82 203 -77 263 10 28 41 33 116 10 159 -27 51
-109 120 -181 153 -95 42 -125 66 -195 159 -34 44 -65 80 -70 80 -5 0 -42 34
-82 75 -48 50 -85 79 -109 86 -42 13 -125 8 -190 -11 -46 -13 -47 -13 -100 22
-70 47 -170 152 -192 203 -9 22 -28 99 -42 170 -45 230 -146 398 -268 443
-124 47 -177 40 -420 -58 -204 -83 -244 -81 -254 15 -8 62 10 122 74 255 80
165 76 224 -17 288 -41 28 -111 29 -160 3z"/>
<path d="M7814 14646 c-42 -19 -82 -73 -90 -123 -5 -32 -1 -52 15 -86 20 -41
116 -113 1208 -908 653 -475 1198 -870 1212 -878 14 -8 47 -15 73 -15 132 0
205 164 115 259 -39 41 -2377 1742 -2413 1755 -35 14 -83 12 -120 -4z"/>
<path d="M7442 14223 c-45 -22 -74 -67 -80 -122 -9 -97 -39 -70 730 -648 386
-291 715 -538 731 -547 40 -27 119 -24 162 5 72 49 95 154 48 218 -23 32
-1438 1097 -1467 1105 -38 10 -91 6 -124 -11z"/>
<path d="M7050 13688 c-48 -33 -72 -70 -77 -119 -10 -92 -24 -79 732 -640 380
-282 707 -519 728 -526 109 -38 227 78 196 190 -6 21 -22 51 -37 67 -26 27
-1325 994 -1386 1031 -44 27 -114 25 -156 -3z"/>
<path d="M2308 13396 c-47 -13 -119 -56 -141 -85 -7 -9 -40 -40 -75 -70 -113
-97 -182 -254 -182 -417 0 -184 147 -427 304 -504 86 -42 202 -69 336 -80 63
-5 131 -13 150 -19 19 -6 118 -21 220 -35 212 -29 243 -37 296 -72 104 -70
169 -133 224 -214 31 -47 93 -137 138 -201 45 -63 116 -173 159 -245 102 -169
290 -548 344 -694 23 -63 59 -149 79 -190 21 -41 52 -118 70 -170 18 -52 63
-158 100 -235 38 -77 92 -195 119 -262 48 -116 125 -267 197 -383 60 -98 225
-472 294 -665 16 -44 44 -118 63 -165 19 -47 40 -110 46 -140 21 -90 110 -390
141 -470 15 -41 37 -106 48 -145 11 -38 34 -117 51 -175 44 -154 59 -254 66
-455 9 -257 -7 -352 -82 -495 -80 -152 -200 -307 -332 -429 -228 -211 -346
-398 -414 -655 -18 -69 -21 -109 -22 -271 0 -179 2 -196 28 -290 50 -177 144
-349 267 -490 226 -259 611 -458 962 -495 51 -5 122 -15 156 -20 35 -6 177
-16 315 -21 139 -6 315 -15 392 -19 293 -17 785 -30 905 -24 215 10 652 11
975 2 171 -5 528 -13 795 -18 1141 -21 1838 -37 1848 -44 5 -3 160 -11 343
-16 184 -6 352 -15 373 -20 31 -7 53 -4 95 11 40 13 83 19 151 19 106 1 203 9
430 40 130 17 167 26 229 55 96 46 137 80 215 177 115 143 151 236 150 388 0
68 -7 105 -33 188 -39 120 -76 179 -144 234 -183 144 -441 188 -1352 228 -132
6 -334 17 -450 25 -115 8 -309 17 -430 20 -288 7 -789 30 -1205 55 -91 5 -248
15 -350 20 -102 6 -270 17 -375 25 -104 8 -262 19 -350 25 -88 6 -194 14 -235
20 -41 5 -138 14 -215 20 -77 6 -189 15 -250 21 -123 10 -501 36 -555 38 -494
12 -777 23 -825 29 -65 9 -160 48 -211 87 -39 30 -58 80 -75 197 -32 224 49
455 194 554 91 63 215 92 462 109 50 3 151 15 225 25 129 19 162 20 780 10
382 -6 716 -16 820 -24 227 -19 360 -19 495 -1 361 50 519 64 815 76 146 5
333 17 415 25 83 8 218 19 300 25 333 21 403 29 503 54 56 14 127 37 156 50
30 13 83 31 117 40 82 22 128 45 188 99 27 24 60 47 73 51 56 17 133 110 238
285 15 25 76 122 135 215 59 94 138 226 174 295 37 69 83 150 103 180 139 218
301 513 406 741 27 58 93 183 145 276 53 94 113 213 132 264 24 61 67 142 125
230 49 74 117 187 151 250 34 63 76 134 94 159 17 25 47 72 65 105 19 33 80
131 136 217 57 87 144 235 194 330 50 94 104 190 119 212 26 39 128 227 177
326 12 25 33 88 48 140 14 52 35 127 46 165 15 55 19 101 19 210 1 123 -2 147
-22 195 -60 144 -196 298 -309 348 -68 31 -196 75 -268 92 -96 23 -699 33
-2135 36 -995 1 -1506 6 -1560 13 -110 15 -1472 34 -1900 26 -192 -3 -739 -10
-1215 -15 -476 -6 -963 -13 -1083 -16 -174 -5 -237 -3 -311 10 -52 9 -131 16
-177 16 -90 0 -170 15 -399 75 l-145 38 -97 91 c-147 139 -218 199 -278 238
-30 19 -86 67 -125 105 -88 89 -254 220 -342 271 -102 60 -259 128 -343 151
-71 19 -295 52 -445 66 -38 4 -135 18 -215 31 -163 27 -372 32 -452 10z m517
-339 c99 -14 250 -35 335 -46 178 -22 214 -33 365 -108 121 -59 251 -157 377
-281 42 -42 103 -94 136 -116 73 -50 145 -112 276 -237 56 -53 117 -104 136
-114 32 -17 280 -85 455 -126 44 -11 145 -23 225 -28 80 -6 179 -15 220 -21
49 -8 147 -10 285 -6 115 3 593 10 1060 16 468 5 1019 12 1225 15 448 8 1800
-11 1920 -26 55 -7 614 -11 1590 -13 1556 -3 1958 -11 2065 -41 70 -19 218
-96 258 -134 48 -44 57 -72 57 -177 0 -174 -48 -311 -211 -599 -31 -55 -94
-176 -141 -270 -47 -93 -130 -237 -185 -320 -55 -82 -123 -190 -153 -240 -29
-49 -65 -108 -79 -130 -15 -22 -54 -87 -85 -145 -32 -58 -102 -172 -154 -255
-58 -89 -110 -184 -129 -235 -38 -98 -43 -108 -148 -295 -43 -77 -103 -192
-132 -255 -114 -242 -264 -513 -417 -752 -18 -29 -52 -90 -75 -135 -46 -92
-213 -366 -362 -593 -89 -136 -272 -247 -524 -318 -54 -15 -104 -20 -215 -21
-153 -2 -276 -10 -505 -35 -77 -8 -259 -20 -405 -26 -310 -13 -525 -31 -775
-67 -159 -22 -200 -25 -355 -19 -96 3 -227 11 -290 16 -114 10 -839 24 -1250
24 -173 0 -275 -6 -525 -32 -170 -19 -334 -38 -363 -44 -30 -5 -95 -30 -145
-55 -122 -61 -238 -173 -291 -282 -19 -40 -40 -79 -45 -85 -33 -40 -91 -303
-91 -415 0 -123 35 -316 72 -390 50 -104 133 -177 280 -249 144 -70 163 -77
243 -77 33 0 143 -4 245 -8 102 -4 291 -9 420 -12 245 -6 430 -19 910 -61 507
-44 962 -78 1355 -99 154 -8 343 -20 420 -25 195 -15 548 -29 960 -40 193 -5
393 -13 445 -19 52 -5 208 -15 345 -21 618 -27 839 -43 1021 -75 238 -41 288
-69 323 -176 37 -116 22 -175 -77 -297 -49 -60 -96 -81 -205 -93 -51 -6 -112
-15 -137 -20 -145 -29 -925 -36 -1230 -10 -304 26 -590 34 -1240 37 -382 1
-861 8 -1065 14 -388 12 -1159 14 -1330 5 -97 -6 -637 9 -900 25 -71 5 -245
13 -385 19 -172 7 -292 17 -369 31 -62 11 -131 20 -153 20 -22 0 -88 16 -145
35 -334 112 -582 329 -693 609 -50 124 -63 202 -57 346 8 207 65 344 201 484
268 274 418 458 519 638 122 216 142 311 139 641 -2 172 -7 255 -22 343 -23
133 -101 417 -159 579 -45 124 -105 322 -132 438 -18 73 -66 206 -191 522 -71
181 -197 450 -267 569 -74 127 -112 200 -134 251 -77 185 -112 263 -155 348
-28 53 -65 141 -83 195 -17 53 -51 135 -74 182 -23 47 -61 139 -85 205 -54
148 -279 596 -384 765 -43 69 -115 177 -160 240 -46 63 -109 154 -140 203 -42
63 -79 106 -139 155 -213 178 -279 206 -577 243 -91 11 -192 27 -225 36 -33 8
-112 19 -175 23 -156 12 -209 29 -258 85 -45 51 -82 139 -82 195 0 71 26 121
98 187 l67 63 125 -3 c69 -2 206 -15 305 -30z"/>
<path d="M6627 13223 c-20 -16 -42 -41 -49 -58 -18 -42 -15 -107 8 -146 24
-42 739 -553 796 -569 67 -19 145 16 178 81 34 66 21 138 -36 190 -24 22 -577
414 -709 502 -57 39 -137 38 -188 0z"/>
<path d="M6322 12810 c-69 -42 -93 -137 -53 -210 22 -42 236 -195 293 -211
112 -30 222 82 189 191 -16 56 -47 86 -179 174 -105 71 -116 76 -165 76 -34 0
-63 -7 -85 -20z"/>
<path d="M5750 3499 c-321 -40 -614 -208 -807 -463 -318 -423 -318 -998 1
-1422 59 -78 195 -209 275 -263 347 -236 798 -269 1176 -87 593 286 837 993
546 1581 -71 143 -129 222 -245 333 -212 203 -468 312 -766 326 -58 3 -139 1
-180 -5z m240 -259 c317 -38 585 -230 721 -515 78 -163 106 -318 88 -486 -13
-129 -33 -199 -89 -316 -93 -191 -232 -330 -424 -423 -115 -56 -187 -76 -313
-89 -166 -17 -325 11 -483 85 -259 123 -446 357 -507 638 -21 93 -21 289 0
381 39 180 118 321 261 465 103 103 209 170 343 216 142 48 261 61 403 44z"/>
<path d="M11880 3249 c-321 -40 -614 -208 -807 -463 -318 -423 -318 -998 1
-1422 59 -78 195 -209 275 -263 347 -236 798 -269 1176 -87 593 286 837 993
546 1581 -71 143 -129 222 -245 333 -212 203 -468 312 -766 326 -58 3 -139 1
-180 -5z m240 -259 c317 -38 585 -230 721 -515 78 -163 106 -318 88 -486 -13
-129 -33 -199 -89 -316 -93 -191 -232 -330 -424 -423 -115 -56 -187 -76 -313
-89 -166 -17 -325 11 -483 85 -259 123 -446 357 -507 638 -21 93 -21 289 0
381 39 180 118 321 261 465 103 103 209 170 343 216 142 48 261 61 403 44z"/>
</g>
</svg>
