<svg id="Layer_1" enable-background="new 0 0 512 512" height="512" viewBox="0 0 512 512" width="512" xmlns="http://www.w3.org/2000/svg"><g><path d="m43.265 388.605h425.469c20.528-35.834 32.267-77.349 32.267-121.607 0-135.311-109.691-245.002-245.002-245.002s-245.002 109.691-245.002 245.002c.001 44.258 11.74 85.773 32.268 121.607z" fill="#45304c"/><path d="m256.021 357.291c20.046 0 39.617-5.351 56.726-15.348.494-15.201.791-30.105.97-44.607-3.717-9.647-4.958-21.043-5.264-29.931-5.298 6.171-10.858 11.333-16.171 15.458-10.352 8.039-23.125 12.405-36.282 12.405-13.156 0-25.93-4.366-36.281-12.405-5.313-4.125-10.874-9.288-16.172-15.458-.307 8.925-1.558 20.379-5.311 30.052.066 14.488.282 29.279.705 44.285 17.191 10.131 36.897 15.549 57.08 15.549z" fill="#ffd9a1"/><path d="m256.628 295.256c-.21.002-.418.013-.628.013-13.156 0-25.93-4.366-36.281-12.405-5.313-4.125-10.874-9.288-16.172-15.458-.307 8.925-1.558 20.379-5.311 30.052.066 14.488.282 29.279.705 44.285 6.901 4.066 14.212 7.359 21.792 9.861 1.522-.087 3.069-.268 4.647-.573 28.194-5.449 31.483-38.595 31.248-55.775z" fill="#f9c98a"/><path d="m198.886 339.713c1.477 54.661 5.735 112.266 15.971 168.83 13.379 2.262 27.121 3.457 41.143 3.457 13.856 0 27.437-1.168 40.665-3.379 10.286-56.97 14.45-114.754 16.145-168.713-17.123 10.021-36.719 15.383-56.789 15.383-20.204.001-39.931-5.428-57.135-15.578z" fill="#deeeff"/><path d="m256.029 382.558c19.536 0 38.64-4.857 55.64-13.964.468-9.662.844-19.234 1.141-28.686-17.123 10.021-36.719 15.383-56.789 15.383-20.204 0-39.931-5.428-57.135-15.579.256 9.464.598 19.02 1.037 28.64 17.116 9.268 36.393 14.206 56.106 14.206z" fill="#d3dcfb"/><path d="m432.314 350.371c-3.534-1.695-7.332-3.143-11.377-4.342l-65.15-24.863c-3.521-1.444-7.073-2.806-10.669-4.072-2.836 3.605-6.956 8.283-12.409 13.198-5.028 65.357-21.945 134.782-34.037 177.995 72.831-12.792 134.581-57.747 170.063-119.684-7.432-15.694-18.877-29.816-36.421-38.232z" fill="#49b1f7"/><path d="m171.579 322.647-26.828 52.588c-5.399 1.721-42.726 14.924-42.726 50.622v31.695c31.507 25.491 69.451 43.34 111.027 50.692-11.854-51.615-18.031-117.791-21.212-168.156-8.727-5.851-15.431-12.14-20.261-17.441z" fill="#49b1f7"/><path d="m103.525 425.856c0-37.591 42.274-49.374 42.274-49.374l26.865-52.662c-2.315-2.466-4.249-4.753-5.798-6.72-3.581 1.261-7.119 2.617-10.626 4.055l-65.219 24.886c-4.011 1.191-7.778 2.627-11.286 4.306-17.572 8.413-29.032 22.548-36.47 38.258 15.497 27.052 36.006 50.865 60.26 70.173 0-8.967 0-20.026 0-32.922z" fill="#1fa2ea"/><path d="m133.801 373.619 25.059 5.981c2.958.706 5.705 2.108 8.012 4.09l12.172 10.458-2.251 1.657 2.251.343 23.143-17.902c-1.955-33.415-1.97-86.776-1.97-86.776l-13.663 5.206c-11.648 4.439-21.61 12.421-28.48 22.822l-28.569 43.252c-2.728 4.133-.52 9.72 4.296 10.869z" fill="#73c3f9"/><path d="m202.078 376.332-23.033 17.817-32.684 24.058c-7.859 5.784-11.078 16.013-7.879 25.232 5.782 16.663 12.612 33.077 19.486 48.142 18.592 8.127 38.384 14.015 59.041 17.319-8.725-48.803-12.92-97.314-14.931-132.568z" fill="#9bd8f9"/><path d="m377.749 373.619-25.06 5.981c-2.958.706-5.705 2.108-8.012 4.09l-12.172 10.458 2.252 1.657-2.252.343-23.143-17.902c1.956-33.415 2.419-86.776 2.419-86.776l13.394 5.177c11.536 4.459 21.397 12.4 28.213 22.72l28.656 43.384c2.729 4.132.521 9.719-4.295 10.868z" fill="#73c3f9"/><path d="m365.19 418.207-32.684-24.058-23.033-17.817c-2.013 35.273-6.211 83.816-14.945 132.643 20.617-3.257 40.375-9.089 58.944-17.15 6.911-15.131 13.783-31.634 19.597-48.387 3.199-9.218-.021-19.447-7.879-25.231z" fill="#9bd8f9"/><path d="m423.487 88.206c-23.26 17.194-52.201 46.18-39.932 82.497 19 56.244-67 91.713 29 132.478 38.384 16.3 60.687 33.306 73.645 47.851 9.572-26.211 14.803-54.51 14.803-84.034-.001-70.531-29.816-134.09-77.516-178.792z" fill="#56415e"/><path d="m88.513 88.206c23.26 17.194 52.201 46.18 39.932 82.497-19 56.244 67 91.713-29 132.478-38.385 16.3-60.688 33.306-73.645 47.851-9.572-26.211-14.803-54.51-14.803-84.034.001-70.531 29.816-134.09 77.516-178.792z" fill="#56415e"/><path d="m437.608 431.418c-4.848-20.04-17.209-31.614-27.207-37.935-6.251-3.952-14.401.496-14.401 7.892v66.688c15.223-10.62 29.18-22.927 41.608-36.645z" fill="#1fa2ea"/><g><path d="m164.931 157.476h183.271c.325-13.205 2.527-48.157 16.328-73.055 1.919-3.463 2.262-7.577.926-11.304-5.008-13.962-19.966-46.602-52.588-55.308-1.738-.464-2.197-2.712-.783-3.823l4.889-3.841c2.217-1.742 1.365-5.28-1.403-5.814-24.068-4.641-104.003-15.749-128.834 35.308-1.482 3.047-4.275 5.241-7.555 6.09-7.225 1.87-20.22 7.506-28.69 24.395-1.657 3.303-1.939 7.134-.752 10.633 4.117 12.131 14.145 44.705 15.191 76.719z" fill="#eab049"/><path d="m246.936 76.772c-29.272-44.609 21.93-76.754 21.93-76.754-31.052.402-66.923 8.353-82.129 39.621-1.482 3.047-4.275 5.241-7.555 6.09-7.225 1.87-20.22 7.506-28.69 24.395-1.657 3.303-1.939 7.134-.752 10.633 4.116 12.131 14.145 44.705 15.191 76.719h42.66c27-21.871 56.739-54.196 39.345-80.704z" fill="#ea9939"/><path d="m355.316 152.135c-4.103-3.76-13.276-1.854-16.81.448.774 4.821.818 9.753.149 14.623l-4.17 30.372c0 2.448-.077 4.85-.219 7.21 10.169 3.067 16.22-6.062 17.071-12.327.366-2.697.965-5.355 1.796-7.949 2.705-8.446 12.463-22.956 2.183-32.377z" fill="#ffd9a1"/><path d="m156.804 152.135c4.103-3.76 13.276-1.854 16.81.448-.774 4.821-.818 9.753-.149 14.623l4.17 30.372c0 2.448.077 4.85.219 7.21-10.169 3.067-16.22-6.062-17.071-12.327-.366-2.697-.965-5.355-1.796-7.949-2.705-8.446-12.463-22.956-2.183-32.377z" fill="#f9c98a"/><path d="m336.996 143.2c-.939-2.449-2.122-4.929-3.613-7.268-2.525-3.961-3.636-8.647-3.297-13.32.973-13.438.452-39.721-17.19-47.659-14.988-6.744-33.372-2.839-45.096 1.06-7.333 2.438-15.255 2.521-22.632.263-13.358 10.252-13.672 33.335-12.769 45.627.345 4.698-.811 9.398-3.35 13.381-1.463 2.296-2.634 4.726-3.57 7.131-3.037 7.802-3.923 16.264-2.785 24.55l4.226 30.781c0 44.252 23.622 74.33 43.716 89.934 2.966 2.303 6.139 4.284 9.452 5.975 4.342-1.925 8.461-4.371 12.253-7.316 19.831-15.399 43.144-45.085 43.144-88.759l4.17-30.372c1.113-8.099.27-16.368-2.659-24.008z" fill="#fce6ca"/><g><path d="m270.779 286.337c-19.831-15.399-43.144-45.085-43.144-88.759l-4.171-30.378c-1.123-8.177-.249-16.529 2.749-24.229.924-2.374 2.079-4.772 3.524-7.038 2.506-3.932 3.647-8.569 3.307-13.206-.92-12.516-.562-36.369 13.894-45.955-.879-.222-1.752-.472-2.617-.76-11.725-3.898-30.109-7.803-45.096-1.06-17.692 7.96-18.166 34.371-17.181 47.774.341 4.637-.801 9.274-3.307 13.206-1.444 2.266-2.6 4.664-3.524 7.038-2.997 7.7-3.871 16.052-2.749 24.229l4.171 30.378c0 43.674 23.314 73.359 43.144 88.759 10.351 8.038 23.125 12.404 36.281 12.404 8.885 0 17.592-1.999 25.5-5.768-3.802-1.809-7.421-4.025-10.781-6.635z" fill="#ffd9a1"/></g></g></g></svg>