<?xml version="1.0" encoding="UTF-8"?>
<svg xmlns="http://www.w3.org/2000/svg" xmlns:xlink="http://www.w3.org/1999/xlink" xmlns:svgjs="http://svgjs.com/svgjs" version="1.1" width="512" height="512" x="0" y="0" viewBox="0 0 512 512" style="enable-background:new 0 0 512 512" xml:space="preserve" class="">
  <g>
    <g xmlns="http://www.w3.org/2000/svg">
      <path d="m42.305 386.888h427.389c19.927-35.442 31.307-76.334 31.307-119.89 0-135.311-109.691-245.002-245.002-245.002s-245.002 109.691-245.002 245.002c.001 43.556 11.381 84.447 31.308 119.89z" fill="#ff9100" data-original="#ff9100" class=""/>
      <path d="m164.61 157.476h183.271c.325-13.205 2.527-48.157 16.328-73.055 1.919-3.463 2.262-7.577.926-11.304-5.008-13.962-19.966-46.602-52.588-55.308-1.738-.464-2.197-2.712-.783-3.823l4.889-3.841c2.217-1.742 1.365-5.28-1.403-5.813-24.068-4.642-104.004-15.75-128.834 35.307-1.482 3.047-4.275 5.241-7.555 6.09-7.225 1.87-20.22 7.506-28.69 24.395-1.657 3.303-1.939 7.134-.752 10.633 4.117 12.131 14.145 44.705 15.191 76.719z" fill="#ffce00" data-original="#56415e" class=""/>
      <path d="m246.615 76.772c-29.272-44.609 21.93-76.754 21.93-76.754-31.052.402-66.923 8.354-82.129 39.621-1.482 3.047-4.275 5.241-7.555 6.09-7.225 1.87-20.22 7.506-28.69 24.395-1.657 3.303-1.939 7.134-.752 10.633 4.116 12.131 14.145 44.705 15.191 76.719h42.66c27-21.871 56.739-54.196 39.345-80.704z" fill="#e9bd03" data-original="#45304c" class=""/>
      <path d="m255.739 382.802c16.167 0 31.902-4.859 45.175-13.856 10.015-14.256 17.523-31.75 16.35-51.508-1.123-18.909-9.598-30.738-9.912-31.167-1.768-2.721-3.295-6.087-4.552-10.011h-3.076c-2.587 2.432-5.174 4.639-7.705 6.604-10.352 8.039-23.126 12.405-36.282 12.405s-25.93-4.366-36.281-12.405c-2.53-1.965-5.117-4.172-7.704-6.604h-2.657c.07.068.136.141.206.209-1.272 4.05-2.83 7.509-4.635 10.293-.62.861-8.829 12.608-9.933 31.198-1.164 19.611 6.223 36.99 16.126 51.188 13.212 8.869 28.834 13.654 44.88 13.654z" fill="#ffd9a1" data-original="#ffd9a1"/>
      <path d="m255.739 295.269c-13.156 0-25.93-4.366-36.281-12.405-2.53-1.964-5.117-4.172-7.704-6.604h-2.657c.07.068.136.141.206.209-1.272 4.05-2.83 7.509-4.635 10.294-.62.861-8.829 12.607-9.933 31.197-1.164 19.611 6.223 36.991 16.126 51.188 47.473-17.232 44.878-73.879 44.878-73.879z" fill="#f9c98a" data-original="#f9c98a" class=""/>
      <path d="m208.364 365.406c6.513 10.186 14.473 18.895 21.896 25.804 1.71 1.591 2.69 3.845 2.69 6.183v113.519c7.59.709 15.275 1.088 23.05 1.088s15.46-.379 23.05-1.087v-113.222c.085-.412-.473-4.059 2.689-7.003 7.359-6.849 15.245-15.47 21.727-25.544-13.785 10.149-30.511 15.657-47.727 15.657-17.069.001-33.658-5.411-47.375-15.395z" fill="#ffc839" data-original="#ffc839" class=""/>
      <path d="m230.259 391.211c1.71 1.591 2.69 3.845 2.69 6.183v5.609c7.348 2.165 15.017 3.299 22.789 3.299 7.957 0 15.805-1.191 23.311-3.459v-5.152c.085-.412-.473-4.059 2.689-7.003 7.359-6.849 15.245-15.47 21.727-25.544-13.785 10.149-30.511 15.658-47.727 15.658-17.069 0-33.658-5.412-47.375-15.396 6.514 10.187 14.474 18.896 21.896 25.805z" fill="#ffdd40" data-original="#ffdd40"/>
      <path d="m469.694 386.888c-1.862-5.508-3.874-10.567-6.056-15.018-15.118-30.84-69.667-32-87.333-49.667 0 0-4.971 69.713-98.756 75.19v113.652c82.624-7.201 153.489-55.404 192.145-124.157z" fill="#945230" data-original="#945230" class=""/>
      <path d="m158.245 367.63c-.741 3.537-.882 7.494-.4 11.868-8.282 1.173-46.958 8.605-46.958 44.877v40.018c35.187 25.91 77.55 42.642 123.563 46.652v-113.652c-38.332-2.238-61.821-15.208-76.205-29.763z" fill="#945230" data-original="#945230" class=""/>
      <path d="m135.695 322.204c-17.667 17.666-72.215 18.826-87.334 49.666-2.182 4.451-4.194 9.51-6.056 15.018 17.434 31.008 41.421 57.834 70.082 78.605 0-10.673 0-24.625 0-41.118 0-39.506 47.133-43.573 47.133-43.573-.637-4.577-.582-8.514.007-11.907-22.014-21.331-23.832-46.691-23.832-46.691z" fill="#753616" data-original="#753616" class=""/>
      <path d="m354.995 152.135c-4.103-3.76-13.276-1.854-16.81.448.774 4.821.818 9.753.149 14.623l-4.17 30.372c0 2.448-.077 4.85-.219 7.21 10.169 3.067 16.22-6.062 17.071-12.327.366-2.697.965-5.355 1.796-7.949 2.705-8.446 12.463-22.956 2.183-32.377z" fill="#ffd9a1" data-original="#ffd9a1"/>
      <path d="m156.483 152.135c4.103-3.76 13.276-1.854 16.81.448-.774 4.821-.818 9.753-.149 14.623l4.17 30.372c0 2.448.077 4.85.219 7.21-10.169 3.067-16.22-6.062-17.071-12.327-.366-2.697-.965-5.355-1.796-7.949-2.706-8.446-12.463-22.956-2.183-32.377z" fill="#f9c98a" data-original="#f9c98a" class=""/>
      <path d="m370.891 294.673c-12.968-13.811-36.783-24.915-55.172-35.803 0 0-.286.164-.887.49-4.355 6.169-9.079 11.558-13.834 16.164 1.087 3.645 2.722 7.912 5.096 11.566 0 0 34.252 47.001-25.377 102.501-2.02 1.88-3.169 4.522-3.169 7.281 0 6.558 6.226 11.346 12.555 9.629 17.743-4.813 50.752-15.742 75.54-35.486 23.716-18.892 26.002-54.239 5.248-76.342z" fill="#b26847" data-original="#b26847" class=""/>
      <path d="m200.997 347.767c-4.587-.711-24.896-3.122-36.128 7.601-5.817 5.553-8.177 13.666-7.023 24.13-.09.013-.203.031-.3.045 22.819 14.761 49.17 23.361 64.35 27.479 6.329 1.717 12.555-3.071 12.555-9.629 0-2.759-1.149-5.401-3.169-7.281-16.104-14.988-25.352-29.354-30.285-42.345z" fill="#b26847" data-original="#b26847" class=""/>
      <path d="m205.905 287.612c2.378-3.66 4.014-7.935 5.102-11.583-4.835-4.622-9.653-10.048-14.095-16.285-.42-.229-.631-.35-.631-.35-18.389 10.887-42.204 21.991-55.172 35.802-20.754 22.103-18.468 57.45 5.247 76.34 4.19 3.338 8.618 6.417 13.164 9.264-5.615-40.327 42.111-31.407 42.111-31.407l.004-.004c-14.532-35.958 4.27-61.777 4.27-61.777z" fill="#945230" data-original="#945230" class=""/>
      <path d="m192.819 467.948c-4.693 0-8.532-3.839-8.532-8.532v-70.083c0-4.693 3.839-8.532 8.532-8.532 4.692 0 8.532 3.839 8.532 8.532v70.083c-.001 4.693-3.84 8.532-8.532 8.532z" fill="#deeeff" data-original="#deeeff"/>
      <path d="m319.704 467.948c-4.693 0-8.532-3.839-8.532-8.532v-70.083c0-4.693 3.839-8.532 8.532-8.532 4.693 0 8.532 3.839 8.532 8.532v70.083c0 4.693-3.84 8.532-8.532 8.532z" fill="#deeeff" data-original="#deeeff"/>
      <path d="m336.675 143.2c-.939-2.449-2.122-4.929-3.613-7.268-2.525-3.961-3.636-8.648-3.297-13.32.973-13.438.452-39.721-17.19-47.659-14.987-6.744-33.372-2.839-45.096 1.06-7.333 2.438-15.255 2.521-22.632.263-13.358 10.252-13.672 33.335-12.769 45.626.345 4.698-.811 9.397-3.35 13.381-1.463 2.296-2.634 4.726-3.57 7.131-3.037 7.802-3.923 16.264-2.785 24.55l4.226 30.781c0 44.252 23.622 74.33 43.715 89.934 2.966 2.303 6.14 4.284 9.452 5.975 4.342-1.925 8.461-4.371 12.253-7.316 19.831-15.399 43.144-45.085 43.144-88.759l4.17-30.372c1.114-8.098.271-16.367-2.658-24.007z" fill="#fce6ca" data-original="#fce6ca"/>
      <g>
        <path d="m270.458 286.337c-19.831-15.399-43.144-45.085-43.144-88.759l-4.171-30.378c-1.123-8.177-.249-16.529 2.749-24.229.924-2.374 2.079-4.772 3.524-7.038 2.506-3.932 3.647-8.569 3.307-13.206-.92-12.516-.562-36.369 13.894-45.955-.879-.222-1.752-.472-2.617-.76-11.724-3.899-30.109-7.803-45.096-1.06-17.692 7.96-18.166 34.371-17.181 47.774.341 4.637-.801 9.274-3.307 13.206-1.444 2.266-2.6 4.664-3.524 7.038-2.997 7.7-3.871 16.052-2.749 24.229l4.171 30.378c0 43.674 23.314 73.359 43.144 88.759 10.351 8.038 23.125 12.404 36.281 12.404 8.885 0 17.592-1.999 25.5-5.768-3.802-1.809-7.421-4.025-10.781-6.635z" fill="#ffd9a1" data-original="#ffd9a1"/>
      </g>
      <path d="m501.002 266.998c0-73.293-32.194-139.058-83.2-183.956-22.359 17.563-44.498 43.681-33.043 75.39 20.319 56.244-71.652 91.712 31.014 132.478 38.013 15.094 61.271 30.792 75.509 44.582 6.321-21.737 9.72-44.717 9.72-68.494z" fill="#ffb332" data-original="#ffb332"/>
      <path d="m10.998 266.998c0-73.293 32.194-139.058 83.199-183.956 22.359 17.563 44.498 43.681 33.043 75.39-20.319 56.244 71.652 91.712-31.014 132.478-38.013 15.094-61.271 30.792-75.508 44.582-6.321-21.737-9.72-44.717-9.72-68.494z" fill="#ffb332" data-original="#ffb332"/>
      <path d="m437.608 431.418c-4.848-20.04-17.209-31.614-27.207-37.935-6.251-3.952-14.402.496-14.402 7.892v66.688c15.224-10.62 29.181-22.927 41.609-36.645z" fill="#753616" data-original="#753616" class=""/>
    </g>
  </g>
</svg>
