<svg viewBox="-11 0 512 512" xmlns="http://www.w3.org/2000/svg"><path d="m490 267c0 135.308594-109.691406 245-245 245s-245-109.691406-245-245 109.691406-245 245-245 245 109.691406 245 245zm0 0" fill="#3eb7ff"/><path d="m120.453125 478c36.496094 21.59375 79.070313 34 124.546875 34s88.050781-12.40625 124.546875-34zm0 0" fill="#02af8e"/><path d="m251.5 5v33.003906h50.5c2.75 0 5-2.25 5-5v-25c0-2.75-2.25-5-5-5h-51.054688c.34375.589844.554688 1.265625.554688 1.996094zm0 0" fill="#fe3745"/><path d="m270 3.003906h-19.054688c.34375.589844.554688 1.265625.554688 1.996094v33.003906h18.5c-2.75 0-5-2.25-5-5v-25c0-2.75 2.25-5 5-5zm0 0" fill="#ea2a3d"/><path d="m237.503906 62.777344c2.085938-1.789063 4.746094-2.777344 7.496094-2.777344s5.410156.988281 7.496094 2.777344l.003906.003906v-57.78125c0-2.75-2.25-5-5-5h-5c-2.75 0-5 2.25-5 5v57.78125zm0 0" fill="#445ea0"/><path d="m22.019531 218.679688c-2.75 0-5 2.25-5 5v133.214843c14.175781 35.921875 36.617188 67.664063 64.953125 92.945313h70.78125v-231.160156zm0 0" fill="#ffd00d"/><path d="m467.980469 218.679688h-130.734375v231.160156h70.78125c28.335937-25.277344 50.777344-57.023438 64.953125-92.945313v-133.214843c0-2.75-2.25-5-5-5zm0 0" fill="#ffd00d"/><path d="m48 223.679688c0-2.75 2.25-5 5-5h-30.980469c-2.75 0-5 2.25-5 5v133.214843c7.894531 20.015625 18.363281 38.734375 30.980469 55.765625zm0 0" fill="#edc10a"/><path d="m97.945312 449.839844h41.839844c.125-1.097656.214844-2.207032.214844-3.339844 0-16.292969-13.207031-29.5-29.5-29.5-11.308594 0-21.125 6.363281-26.074219 15.703125 6.457031 3.652344 11.457031 9.746094 13.519531 17.136719zm0 0" fill="#02af8e"/><path d="m110.5 417c-11.308594 0-21.125 6.363281-26.074219 15.703125 4.976563 2.816406 9.070313 7.082031 11.640625 12.273437.664063-13.019531 9.75-23.816406 21.933594-27.011718-2.394531-.628906-4.90625-.964844-7.5-.964844zm0 0" fill="#159e97"/><path d="m98.984375 449.839844c-3.375-12.578125-14.84375-21.839844-28.484375-21.839844-3.117188 0-6.117188.488281-8.9375 1.382812 6.394531 7.21875 13.222656 14.039063 20.414062 20.457032zm0 0" fill="#60d882"/><path d="m405.464844 432.484375c-4.988282-9.222656-14.746094-15.484375-25.964844-15.484375-16.292969 0-29.5 13.207031-29.5 29.5 0 1.132812.089844 2.242188.214844 3.339844h42.359375c1.957031-7.289063 6.644531-13.453125 12.890625-17.355469zm0 0" fill="#02af8e"/><path d="m365.21875 449.839844c-.128906-1.097656-.21875-2.207032-.21875-3.339844 0-13.699219 9.339844-25.214844 22-28.535156-2.394531-.628906-4.90625-.964844-7.5-.964844-16.292969 0-29.5 13.207031-29.5 29.5 0 1.132812.089844 2.242188.214844 3.339844zm0 0" fill="#159e97"/><path d="m408.023438 449.839844c7.191406-6.417969 14.019531-13.238282 20.414062-20.457032-2.820312-.894531-5.820312-1.382812-8.9375-1.382812-13.644531 0-25.113281 9.265625-28.484375 21.84375h17.007813zm0 0" fill="#60d882"/><path d="m81.484375 449.433594c11.980469 10.746094 25.027344 20.324218 38.960937 28.566406h32.308594v-28.566406zm0 0" fill="#db722c"/><path d="m337.246094 449.433594v28.566406h32.308594c13.933593-8.242188 26.980468-17.820312 38.960937-28.566406zm0 0" fill="#db722c"/><path d="m245 86.664062-92.746094 79.722657v311.613281h185.492188v-311.613281zm0 0" fill="#ffaf10"/><path d="m245 86.664062-92.746094 79.722657v311.613281h15.25v-306.734375l87.960938-75.609375zm0 0" fill="#ef9614"/><path d="m182 381h126v97h-126zm0 0" fill="#445ea0"/><path d="m284 174c0 21.539062-17.460938 39-39 39s-39-17.460938-39-39 17.460938-39 39-39 39 17.460938 39 39zm0 0" fill="#fff"/><path d="m221 174c0-18.972656 13.550781-34.773438 31.5-38.273438-2.429688-.472656-4.933594-.726562-7.5-.726562-21.539062 0-39 17.460938-39 39s17.460938 39 39 39c2.566406 0 5.070312-.253906 7.5-.726562-17.949219-3.5-31.5-19.300782-31.5-38.273438zm0 0" fill="#eef6ff"/><path d="m203.054688 381h83.890624v97h-83.890624zm0 0" fill="#fff"/><path d="m203.054688 381h15.054687v97h-15.054687zm0 0" fill="#eef6ff"/><path d="m237.5 381h15v97h-15zm0 0" fill="#445ea0"/><path d="m194.273438 277c0 1.648438-1.347657 3-3 3h-18.152344c-1.652344 0-3-1.351562-3-3v-35c0-1.648438 1.347656-3 3-3h18.152344c1.652343 0 3 1.351562 3 3zm0 0" fill="#ffd782"/><path d="m236.144531 277c0 1.648438-1.351562 3-3 3h-18.15625c-1.648437 0-3-1.351562-3-3v-35c0-1.648438 1.351563-3 3-3h18.15625c1.648438 0 3 1.351562 3 3zm0 0" fill="#ffd782"/><path d="m278.011719 277c0 1.648438-1.351563 3-3 3h-18.15625c-1.648438 0-3-1.351562-3-3v-35c0-1.648438 1.351562-3 3-3h18.15625c1.648437 0 3 1.351562 3 3zm0 0" fill="#ffd782"/><path d="m319.878906 277c0 1.648438-1.351562 3-3 3h-18.152344c-1.652343 0-3-1.351562-3-3v-35c0-1.648438 1.347657-3 3-3h18.152344c1.648438 0 3 1.351562 3 3zm0 0" fill="#ffd782"/><g fill="#fff"><path d="m194.273438 337c0 1.648438-1.347657 3-3 3h-18.152344c-1.652344 0-3-1.351562-3-3v-35c0-1.648438 1.347656-3 3-3h18.152344c1.652343 0 3 1.351562 3 3zm0 0"/><path d="m236.144531 337c0 1.648438-1.351562 3-3 3h-18.15625c-1.648437 0-3-1.351562-3-3v-35c0-1.648438 1.351563-3 3-3h18.15625c1.648438 0 3 1.351562 3 3zm0 0"/><path d="m278.011719 337c0 1.648438-1.351563 3-3 3h-18.15625c-1.648438 0-3-1.351562-3-3v-35c0-1.648438 1.351562-3 3-3h18.15625c1.648437 0 3 1.351562 3 3zm0 0"/><path d="m319.878906 337c0 1.648438-1.351562 3-3 3h-18.152344c-1.652343 0-3-1.351562-3-3v-35c0-1.648438 1.347657-3 3-3h18.152344c1.648438 0 3 1.351562 3 3zm0 0"/><path d="m56.261719 277c0 1.648438-1.347657 3-3 3h-18.152344c-1.652344 0-3-1.351562-3-3v-35c0-1.648438 1.347656-3 3-3h18.152344c1.648437 0 3 1.351562 3 3zm0 0"/><path d="m98.132812 277c0 1.648438-1.351562 3-3 3h-18.15625c-1.648437 0-3-1.351562-3-3v-35c0-1.648438 1.351563-3 3-3h18.15625c1.648438 0 3 1.351562 3 3zm0 0"/><path d="m140 277c0 1.648438-1.351562 3-3 3h-18.15625c-1.648438 0-3-1.351562-3-3v-35c0-1.648438 1.351562-3 3-3h18.15625c1.648438 0 3 1.351562 3 3zm0 0"/><path d="m56.261719 337c0 1.648438-1.347657 3-3 3h-18.152344c-1.652344 0-3-1.351562-3-3v-35c0-1.648438 1.347656-3 3-3h18.152344c1.648437 0 3 1.351562 3 3zm0 0"/><path d="m98.132812 337c0 1.648438-1.351562 3-3 3h-18.15625c-1.648437 0-3-1.351562-3-3v-35c0-1.648438 1.351563-3 3-3h18.15625c1.648438 0 3 1.351562 3 3zm0 0"/><path d="m140 337c0 1.648438-1.351562 3-3 3h-18.15625c-1.648438 0-3-1.351562-3-3v-35c0-1.648438 1.351562-3 3-3h18.15625c1.648438 0 3 1.351562 3 3zm0 0"/><path d="m53.261719 360h-18.152344c-1.652344 0-3 1.351562-3 3v25.320312c2.460937 4.3125 5.058594 8.539063 7.769531 12.679688h13.382813c1.652343 0 3-1.351562 3-3v-35c0-1.648438-1.347657-3-3-3zm0 0"/><path d="m98.132812 398c0 1.648438-1.351562 3-3 3h-18.15625c-1.648437 0-3-1.351562-3-3v-35c0-1.648438 1.351563-3 3-3h18.15625c1.648438 0 3 1.351562 3 3zm0 0"/><path d="m140 398c0 1.648438-1.351562 3-3 3h-18.15625c-1.648438 0-3-1.351562-3-3v-35c0-1.648438 1.351562-3 3-3h18.15625c1.648438 0 3 1.351562 3 3zm0 0"/><path d="m374.152344 277c0 1.648438-1.347656 3-3 3h-18.152344c-1.648438 0-3-1.351562-3-3v-35c0-1.648438 1.351562-3 3-3h18.152344c1.652344 0 3 1.351562 3 3zm0 0"/><path d="m416.023438 277c0 1.648438-1.351563 3-3 3h-18.15625c-1.648438 0-3-1.351562-3-3v-35c0-1.648438 1.351562-3 3-3h18.15625c1.648437 0 3 1.351562 3 3zm0 0"/><path d="m457.890625 277c0 1.648438-1.347656 3-3 3h-18.152344c-1.652343 0-3-1.351562-3-3v-35c0-1.648438 1.347657-3 3-3h18.152344c1.652344 0 3 1.351562 3 3zm0 0"/><path d="m374.152344 337c0 1.648438-1.347656 3-3 3h-18.152344c-1.648438 0-3-1.351562-3-3v-35c0-1.648438 1.351562-3 3-3h18.152344c1.652344 0 3 1.351562 3 3zm0 0"/><path d="m416.023438 337c0 1.648438-1.351563 3-3 3h-18.15625c-1.648438 0-3-1.351562-3-3v-35c0-1.648438 1.351562-3 3-3h18.15625c1.648437 0 3 1.351562 3 3zm0 0"/><path d="m457.890625 337c0 1.648438-1.347656 3-3 3h-18.152344c-1.652343 0-3-1.351562-3-3v-35c0-1.648438 1.347657-3 3-3h18.152344c1.652344 0 3 1.351562 3 3zm0 0"/><path d="m374.152344 398c0 1.648438-1.347656 3-3 3h-18.152344c-1.648438 0-3-1.351562-3-3v-35c0-1.648438 1.351562-3 3-3h18.152344c1.652344 0 3 1.351562 3 3zm0 0"/><path d="m416.023438 398c0 1.648438-1.351563 3-3 3h-18.15625c-1.648438 0-3-1.351562-3-3v-35c0-1.648438 1.351562-3 3-3h18.15625c1.648437 0 3 1.351562 3 3zm0 0"/><path d="m457.890625 363c0-1.648438-1.347656-3-3-3h-18.152344c-1.652343 0-3 1.351562-3 3v35c0 1.648438 1.347657 3 3 3h13.382813c2.710937-4.144531 5.308594-8.367188 7.773437-12.679688v-25.320312zm0 0"/></g><path d="m263 181.5h-18c-4.144531 0-7.5-3.359375-7.5-7.5v-23c0-4.140625 3.355469-7.5 7.5-7.5s7.5 3.359375 7.5 7.5v15.5h10.5c4.144531 0 7.5 3.359375 7.5 7.5s-3.355469 7.5-7.5 7.5zm0 0" fill="#0f9390"/><path d="m354.796875 180.769531c-1.152344 0-2.3125-.398437-3.257813-1.210937l-106.539062-91.574219-106.539062 91.574219c-.945313.8125-2.105469 1.207031-3.257813 1.207031-1.40625 0-2.804687-.589844-3.792969-1.738281l-9.777344-11.378906c-.867187-1.003907-1.296874-2.3125-1.195312-3.632813.101562-1.324219.722656-2.550781 1.726562-3.417969l114.6875-98.578125c2.265626-1.945312 5.160157-3.019531 8.148438-3.019531s5.882812 1.074219 8.148438 3.019531l114.6875 98.582031c1.007812.863282 1.628906 2.09375 1.726562 3.414063.101562 1.324219-.328125 2.628906-1.191406 3.636719l-9.777344 11.375c-.992188 1.148437-2.390625 1.742187-3.796875 1.742187zm0 0" fill="#2e4c89"/><path d="m137.054688 167.652344c-.863282-1.007813-1.292969-2.3125-1.195313-3.636719.101563-1.324219.722656-2.550781 1.730469-3.414063l114.6875-98.582031c.140625-.121093.289062-.230469.433594-.34375-2.195313-1.722656-4.90625-2.675781-7.710938-2.675781-2.988281 0-5.882812 1.074219-8.148438 3.019531l-114.6875 98.582031c-1.007812.863282-1.628906 2.089844-1.726562 3.414063-.101562 1.320313.328125 2.628906 1.191406 3.636719l9.777344 11.375c.992188 1.148437 2.390625 1.742187 3.796875 1.742187 1.152344 0 2.3125-.398437 3.257813-1.210937l5.074218-4.363282zm0 0" fill="#293d7c"/><path d="m318 377c0 2.75-2.25 5-5 5h-136c-2.75 0-5-2.25-5-5v-12c0-2.75 2.25-5 5-5h136c2.75 0 5 2.25 5 5zm0 0" fill="#2e4c89"/><path d="m202 377v-12c0-2.75 2.25-5 5-5h-30c-2.75 0-5 2.25-5 5v12c0 2.75 2.25 5 5 5h30c-2.75 0-5-2.25-5-5zm0 0" fill="#293d7c"/></svg>