<svg id="Capa_1" enable-background="new 0 0 490 490" height="512" viewBox="0 0 490 490" width="512" xmlns="http://www.w3.org/2000/svg"><g><path d="m490 245c0 32.6-6.37 63.72-17.94 92.17-17.36 42.75-46.45 79.48-83.26 106.21-2.15 1.56-4.33 3.09-6.53 4.59-39.16 26.53-86.4 42.03-137.27 42.03-44.6 0-86.42-11.92-122.45-32.74-6.67-3.86-13.15-8.03-19.41-12.48-30.41-21.63-55.67-50.04-73.57-83.02-4.33-7.97-8.23-16.21-11.67-24.68-11.54-28.43-17.9-59.51-17.9-92.08 0-135.31 109.69-245 245-245s245 109.69 245 245z" fill="#78b0d9"/><g><path d="m488.991 155.178v-9.292c.019-2.736-1.373-5.482-4.165-6.957l-82.07-43.333c-3.073-1.625-6.453-2.437-9.834-2.437s-6.761.812-9.834 2.437l-82.07 43.333c-2.792 1.476-4.184 4.221-4.165 6.957v9.292h8.76l77.476 40.904c3.072 1.625 6.453 2.438 9.834 2.438s6.761-.812 9.834-2.438l77.475-40.904z" fill="#593375"/><path d="m488.992 155.178v-9.294c.02-2.733-1.372-5.482-4.164-6.956l-39.684-20.952-6.274-3.314-36.115-19.065c-3.07-1.627-6.451-2.439-9.831-2.439v105.362c3.38 0 6.76-.812 9.831-2.439l77.477-40.903z" fill="#8d71b3"/><path d="m484.828 162.09-82.069 43.329c-6.155 3.25-13.518 3.25-19.673 0l-82.069-43.329c-5.556-2.933-5.556-10.891 0-13.824l82.069-43.329c6.155-3.25 13.518-3.25 19.673 0l82.069 43.329c5.555 2.934 5.555 10.891 0 13.824z" fill="#704f85"/><g><path d="m460.766 224.558v117.335h-135.688v-118.178c0-37.642 30.644-67.846 68.35-67.846 78.887 0 61.127 22.205 64.205 48.074 2.036 6.523 3.133 13.452 3.133 20.615z" fill="#d66d22"/><path d="m369.212 327.624c1.25 5.163 2.118 9.915 2.627 14.27h-46.761v-118.179c0-6.899 1.029-13.557 2.943-19.829 3.294-27.799 34.329-48.019 64.905-48.019-29.79 0-47.427 73.924-23.714 171.757z" fill="#bb5a18"/><path d="m472.06 337.17c-17.36 42.75-46.45 79.48-83.26 106.21-2.15 1.56-4.33 3.09-6.53 4.59-22.88-12.38-44.37-59.5-63.35-70.11-8.19-4.57-15.91-9.88-23.07-15.84l32.59-45.18c3.55-4.91 9.23-7.82 15.27-7.82h98.41c6.05 0 11.73 2.91 15.27 7.82z" fill="#704f85"/><path d="m413.423 300.936v8.088l-5.44 14.718-15.065 36.259-15.066-36.259-5.439-14.718v-8.088z" fill="#dba290"/><path d="m446.302 245.603v15.146c0 27.59-20.922 50.278-47.764 53.084-1.841.195-3.719.292-5.612.292-29.483 0-53.383-23.893-53.383-53.376v-15.146c0-29.475 23.901-53.376 53.383-53.376 1.893 0 3.771.097 5.612.292 12.504 1.302 23.714 6.922 32.132 15.34 9.653 9.66 15.632 23.01 15.632 37.744z" fill="#dba290"/><path d="m446.302 245.603v15.146c0 27.59-20.922 50.278-47.764 53.084-26.849-2.806-47.771-25.494-47.771-53.084v-15.146c0-27.582 20.922-50.278 47.771-53.084 12.504 1.302 23.714 6.922 32.132 15.34 9.653 9.66 15.632 23.01 15.632 37.744z" fill="#edbba7"/><g><path d="m379.89 242.721c0-5.436-4.407-9.843-9.843-9.843s-9.843 4.407-9.843 9.843z" fill="#dba290"/><path d="m425.632 242.721c0-5.436-4.407-9.843-9.843-9.843s-9.843 4.407-9.843 9.843z" fill="#dba290"/><g fill="#444562"><path d="m370.047 236.91c3.169 0 5.737 2.569 5.737 5.737v8.993c0 3.169-2.569 5.737-5.737 5.737-3.169 0-5.737-2.569-5.737-5.737v-8.993c-.001-3.168 2.568-5.737 5.737-5.737z"/><path d="m415.789 236.91c3.169 0 5.737 2.569 5.737 5.737v8.993c0 3.169-2.569 5.737-5.737 5.737-3.169 0-5.737-2.569-5.737-5.737v-8.993c0-3.168 2.568-5.737 5.737-5.737z"/></g></g><g><path d="m392.922 217.587-8.231 51.326h8.231" fill="#dba290"/></g><path d="m453.336 243.118c-51.887 0-84.812-29.932-84.812-29.932 0 5.298-4.31 11.666-10.08 16.867-7.82 7.056-18.311 11.95-24.342 9.077l-1.497-15.961 12.474-26.445 18.715-4.722 34.661-8.748 42.907 16.964z" fill="#d66d22"/><path d="m363.795 192.002c-2.836 10.716-4.699 23.534-5.35 38.051-7.82 7.056-18.311 11.95-24.342 9.077l-1.497-15.961 13.32-37.168z" fill="#bb5a18"/><path d="m414.068 274.887c0 2.487-.434 4.881-1.228 7.095-.8 2.264-1.979 4.342-3.455 6.171-.651.812-1.365 1.575-2.127 2.27-3.771 3.492-8.807 5.613-14.34 5.613-5.532 0-10.569-2.121-14.34-5.613-.763-.695-1.476-1.458-2.127-2.27-1.476-1.83-2.655-3.907-3.455-6.171-.794-2.214-1.228-4.608-1.228-7.095z" fill="#444562"/><path d="m407.258 290.424c-3.771 3.492-8.807 5.613-14.34 5.613-5.532 0-10.569-2.121-14.34-5.613 3.765-3.486 8.807-5.613 14.34-5.613 5.532 0 10.575 2.127 14.34 5.613z" fill="#d54980"/><g fill="#dba290"><ellipse cx="423.883" cy="265.586" rx="9.915" ry="4.864"/><ellipse cx="361.961" cy="265.586" rx="9.915" ry="4.864"/></g><path d="m414.068 274.887c0 .192 0 .385-.012.577-6.041 3.2-13.316 5.067-21.138 5.067-7.827 0-15.096-1.867-21.138-5.067-.012-.192-.012-.385-.012-.577z" fill="#fff"/></g><path d="m457.248 165.818v38.244c0-10.203-9.905-19.271-25.25-25.039-10.829-4.056-24.375-6.475-39.075-6.475-9.031 0-17.627.912-25.43 2.562-22.874 4.825-38.895 15.971-38.895 28.952v-38.244c0-12.981 16.021-24.127 38.895-28.952 7.803-1.65 16.399-2.562 25.43-2.562 14.699 0 28.245 2.419 39.075 6.475 15.345 5.769 25.25 14.837 25.25 25.039z" fill="#593375"/><path d="m457.248 165.818v38.244c0-10.203-9.905-19.271-25.25-25.039-10.829-4.056-24.375-6.475-39.075-6.475-9.031 0-17.627.912-25.43 2.562v-38.244c7.803-1.65 16.399-2.562 25.43-2.562 14.699 0 28.245 2.419 39.075 6.475 15.345 5.769 25.25 14.837 25.25 25.039z" fill="#8d71b3"/><path d="m407.983 323.742-15.065 36.259-15.066-36.259z" fill="#f6e06e"/><path d="m372.413 309.024-20.483 8.33c-6.31 2.566-11.32 7.564-13.902 13.868l-19.104 46.642c-8.193-4.577-15.915-9.887-23.079-15.847l32.599-45.178c3.542-4.906 9.223-7.815 15.27-7.815z" fill="#593375"/><g><path d="m192.878 155.178v-9.292c.019-2.736-1.373-5.482-4.165-6.957l-82.07-43.333c-3.073-1.625-6.453-2.437-9.834-2.437s-6.761.812-9.834 2.437l-82.07 43.333c-2.792 1.476-4.184 4.221-4.165 6.957v9.292h8.76l77.476 40.904c3.072 1.625 6.453 2.438 9.834 2.438s6.761-.812 9.834-2.438l77.475-40.904z" fill="#593375"/><g><path d="m182.831 198.313c-1.463 0-2.649-1.186-2.649-2.649v-30.068l-42.387-23.294c-1.282-.705-1.75-2.315-1.046-3.597.705-1.282 2.315-1.75 3.597-1.046l43.76 24.048c.847.465 1.373 1.355 1.373 2.321v31.635c0 1.464-1.186 2.65-2.648 2.65z" fill="#f6e06e"/><circle cx="182.831" cy="195.665" fill="#fff" r="7.268"/><path d="m185.479 202.432c-.821.324-1.715.5-2.649.5-4.016 0-7.267-3.254-7.267-7.267s3.251-7.267 7.267-7.267c.934 0 1.828.175 2.649.5-2.705 1.056-4.618 3.688-4.618 6.767s1.913 5.711 4.618 6.767z" fill="#f1f1f1"/></g><path d="m192.879 155.178v-9.294c.02-2.733-1.372-5.482-4.164-6.956l-39.684-20.952-6.274-3.314-36.115-19.065c-3.07-1.627-6.451-2.439-9.831-2.439v105.362c3.38 0 6.76-.812 9.831-2.439l77.477-40.903z" fill="#8d71b3"/><path d="m188.715 162.09-82.069 43.329c-6.155 3.25-13.518 3.25-19.673 0l-82.069-43.329c-5.556-2.933-5.556-10.891 0-13.824l82.069-43.329c6.155-3.25 13.518-3.25 19.673 0l82.069 43.329c5.556 2.934 5.556 10.891 0 13.824z" fill="#704f85"/><g><path d="m194.06 362.02c-20.11 16.72-44.61 70.69-71.51 95.24-6.67-3.86-13.15-8.03-19.41-12.48-37.76-26.86-67.58-64.17-85.24-107.7l14.6-20.24c3.55-4.91 9.23-7.82 15.27-7.82h98.41c6.05 0 11.73 2.91 15.27 7.82z" fill="#704f85"/><g fill="#895b3d"><path d="m117.483 300.936v8.088l-5.44 14.718-15.065 36.259-15.066-36.259-5.439-14.718v-8.088z"/><circle cx="44.321" cy="248.53" r="17.687"/><circle cx="149.338" cy="248.53" r="17.687"/></g><path d="m96.978 312.671c-29.081 0-52.656-23.575-52.656-52.656v-67.594h105.313v67.594c-.001 29.081-23.576 52.656-52.657 52.656z" fill="#a37754"/><path d="m104.511 312.133c-2.461.355-4.971.536-7.531.536-29.083 0-52.659-23.57-52.659-52.653v-67.594h15.066v67.594c.001 26.523 19.612 48.464 45.124 52.117z" fill="#895b3d"/><path d="m55.446 203.848-16.298 8.203v37.323c9.001 0 16.298-7.297 16.298-16.298z" fill="#232441"/><path d="m138.509 175.138h16.298v74.235c-9.001 0-16.298-7.297-16.298-16.298z" fill="#444562"/><path d="m154.755 212.05h-115.607c0-29.116 23.603-52.719 52.719-52.719h27.237c19.69 0 35.652 15.962 35.652 35.652v17.067z" fill="#444562"/><path d="m116.591 159.331-77.443 15.245v37.474h24.724c0-29.115 23.603-52.719 52.719-52.719z" fill="#232441"/><path d="m118.128 270.855c0 .192 0 .385-.012.577-.056 2.282-.484 4.478-1.216 6.519-.8 2.264-1.979 4.342-3.455 6.171-.651.812-1.364 1.575-2.127 2.27-3.771 3.492-8.807 5.613-14.34 5.613-5.532 0-10.569-2.121-14.34-5.613-.763-.695-1.476-1.458-2.127-2.27-1.476-1.83-2.655-3.907-3.455-6.171-.732-2.041-1.16-4.236-1.216-6.519-.012-.192-.012-.385-.012-.577z" fill="#444562"/><path d="m111.317 286.392c-3.771 3.492-8.807 5.613-14.34 5.613-5.532 0-10.569-2.121-14.34-5.613 3.765-3.486 8.807-5.613 14.34-5.613s10.576 2.127 14.34 5.613z" fill="#d54980"/><path d="m118.128 270.855c0 .192 0 .385-.012.577-6.041 3.2-13.316 5.067-21.138 5.067-7.827 0-15.096-1.867-21.138-5.067-.012-.192-.012-.385-.012-.577z" fill="#fff"/><path d="m96.98 215.152-9.92 46.464h9.92z" fill="#895b3d"/><g><path d="m83.95 239.62c0-5.436-4.407-9.843-9.843-9.843s-9.843 4.407-9.843 9.843z" fill="#895b3d"/><path d="m129.692 239.62c0-5.436-4.407-9.843-9.843-9.843s-9.843 4.407-9.843 9.843z" fill="#895b3d"/><g fill="#444562"><path d="m74.106 233.809c3.169 0 5.737 2.569 5.737 5.737v8.993c0 3.169-2.569 5.737-5.737 5.737-3.169 0-5.737-2.569-5.737-5.737v-8.993c0-3.169 2.569-5.737 5.737-5.737z"/><path d="m119.849 233.809c3.169 0 5.737 2.569 5.737 5.737v8.993c0 3.169-2.569 5.737-5.737 5.737-3.169 0-5.737-2.569-5.737-5.737v-8.993c0-3.169 2.568-5.737 5.737-5.737z"/></g></g></g><path d="m154.752 165.818v38.244c0-10.203-8.913-19.271-22.744-25.039-9.75-4.056-21.956-6.475-35.198-6.475-9.055 0-17.627 1.129-25.256 3.145-19.345 5.105-32.686 15.89-32.686 28.369v-38.244c0-12.479 13.341-23.265 32.686-28.369 7.629-2.016 16.2-3.145 25.256-3.145 13.242 0 25.448 2.419 35.198 6.475 13.832 5.769 22.744 14.837 22.744 25.039z" fill="#593375"/><path d="m154.752 165.818v38.244c0-10.203-8.913-19.271-22.744-25.039-9.75-4.056-21.956-6.475-35.198-6.475-9.055 0-17.627 1.129-25.256 3.145v-38.244c7.629-2.016 16.2-3.145 25.256-3.145 13.242 0 25.448 2.419 35.198 6.475 13.832 5.769 22.744 14.837 22.744 25.039z" fill="#8d71b3"/><path d="m112.043 323.742-15.065 36.259-15.066-36.259z" fill="#74baa7"/><path d="m76.47 309.02-20.48 8.33c-6.31 2.57-11.32 7.57-13.9 13.87l-12.52 30.54c-4.33-7.97-8.23-16.21-11.67-24.68l14.6-20.24c3.55-4.91 9.23-7.82 15.27-7.82z" fill="#593375"/></g><g><path d="m362.329 154.056v-11.369c.023-3.348-1.68-6.707-5.096-8.513l-100.417-53.02c-3.759-1.988-7.896-2.982-12.032-2.982s-8.273.994-12.032 2.982l-100.417 53.02c-3.417 1.805-5.119 5.165-5.096 8.513v11.369h10.718l94.795 50.049c3.759 1.988 7.896 2.982 12.032 2.982s8.273-.994 12.032-2.982l94.795-50.049z" fill="#593375"/><g><path d="m350.035 206.833c-1.79 0-3.241-1.451-3.241-3.241v-36.79l-51.863-28.501c-1.569-.862-2.141-2.832-1.279-4.401.862-1.568 2.832-2.141 4.401-1.279l53.543 29.425c1.036.569 1.68 1.658 1.68 2.84v38.707c-.001 1.789-1.451 3.24-3.241 3.24z" fill="#f6e06e"/><path d="m362.278 233.885c0-6.763-5.482-23.428-12.245-23.428s-12.245 16.665-12.245 23.428 5.482 1.062 12.245 1.062 12.245 5.7 12.245-1.062z" fill="#f6e06e"/><path d="m345.983 233.885c0 .656.016 1.199.049 1.637-4.796 1.256-8.243 3.727-8.243-1.637 0-6.761 5.485-23.426 12.246-23.426-2.237-.001-4.052 16.665-4.052 23.426z" fill="#dcbe34"/><circle cx="350.035" cy="203.592" fill="#fff" r="8.892"/><path d="m353.275 211.872c-1.005.397-2.098.612-3.241.612-4.914 0-8.892-3.982-8.892-8.892s3.978-8.892 8.892-8.892c1.142 0 2.236.215 3.241.612-3.31 1.292-5.651 4.513-5.651 8.28s2.341 6.988 5.651 8.28z" fill="#f1f1f1"/></g><path d="m362.329 154.056v-11.371c.024-3.344-1.679-6.708-5.095-8.512l-48.555-25.635-7.677-4.054-44.189-23.328c-3.757-1.991-7.893-2.984-12.028-2.984v128.916c4.136 0 8.272-.993 12.028-2.984l94.798-50.047h10.718z" fill="#8d71b3"/><path d="m357.234 162.513-100.416 53.015c-7.531 3.976-16.54 3.976-24.071 0l-100.416-53.015c-6.798-3.589-6.798-13.325 0-16.914l100.416-53.015c7.531-3.976 16.54-3.976 24.071 0l100.416 53.015c6.798 3.589 6.798 13.325 0 16.914z" fill="#704f85"/><g><path d="m388.8 443.38c-40.39 29.33-90.07 46.62-143.8 46.62-37.8 0-73.6-8.56-105.56-23.85-12.75-6.09-24.89-13.25-36.3-21.37 9.34-15.45 19.18-30.88 23.08-37.65l39.88-55.27c4.34-6.01 11.29-9.57 18.69-9.57h120.41c7.39 0 14.35 3.56 18.67 9.57l39.9 55.28c3.39 4.62 14.61 20.41 25.03 36.24z" fill="#704f85"/><g fill="#dba290"><path d="m270.078 332.398v9.896l-6.655 18.008-18.434 44.365-18.433-44.365-6.655-18.008v-9.896z"/><circle cx="180.562" cy="268.276" r="21.641"/><circle cx="309.055" cy="268.276" r="21.641"/></g><path d="m244.989 346.756c-35.582 0-64.428-28.845-64.428-64.428v-82.705h128.855v82.705c.001 35.583-28.844 64.428-64.427 64.428z" fill="#edbba7"/><path d="m254.206 346.098c-3.011.435-6.082.656-9.214.656-35.584 0-64.431-28.84-64.431-64.424v-82.705h18.435v82.705c0 32.452 23.995 59.298 55.21 63.768z" fill="#dba290"/><path d="m194.173 213.605-19.941 10.036v45.666c11.013 0 19.941-8.928 19.941-19.941z" fill="#dcbe34"/><path d="m295.805 178.477h19.941v90.83c-11.013 0-19.941-8.928-19.941-19.941z" fill="#f6e06e"/><path d="m315.683 223.641h-141.451c0-35.625 28.879-64.504 64.504-64.504h33.326c24.092 0 43.622 19.53 43.622 43.622v20.882z" fill="#f6e06e"/><path d="m268.987 159.137-94.755 18.653v45.851h30.251c0-35.624 28.88-64.504 64.504-64.504z" fill="#dcbe34"/><path d="m270.868 295.592c0 .235 0 .47-.015.706-.068 2.793-.592 5.479-1.487 7.976-.979 2.77-2.421 5.312-4.227 7.551-.797.994-1.669 1.928-2.603 2.777-4.614 4.273-10.776 6.868-17.545 6.868s-12.931-2.595-17.545-6.868c-.933-.85-1.806-1.783-2.603-2.777-1.806-2.239-3.248-4.781-4.227-7.551-.896-2.497-1.419-5.183-1.487-7.976-.015-.235-.015-.47-.015-.706z" fill="#444562"/><path d="m262.535 314.602c-4.614 4.273-10.776 6.868-17.545 6.868s-12.931-2.595-17.545-6.868c4.606-4.265 10.776-6.868 17.545-6.868s12.938 2.603 17.545 6.868z" fill="#d54980"/><path d="m270.868 295.592c0 .235 0 .47-.015.706-7.392 3.916-16.293 6.2-25.863 6.2-9.577 0-18.471-2.284-25.863-6.2-.015-.235-.015-.47-.015-.706z" fill="#fff"/><path d="m244.992 227.436-12.137 56.851h12.137z" fill="#dba290"/><g><path d="m229.049 257.374c0-6.652-5.392-12.044-12.044-12.044s-12.044 5.392-12.044 12.044z" fill="#dba290"/><path d="m285.017 257.374c0-6.652-5.392-12.044-12.044-12.044s-12.044 5.392-12.044 12.044z" fill="#dba290"/><g fill="#444562"><path d="m217.005 250.264c3.877 0 7.02 3.143 7.02 7.02v11.004c0 3.877-3.143 7.02-7.02 7.02-3.877 0-7.02-3.143-7.02-7.02v-11.004c.001-3.878 3.143-7.02 7.02-7.02z"/><path d="m272.973 250.264c3.877 0 7.02 3.143 7.02 7.02v11.004c0 3.877-3.143 7.02-7.02 7.02-3.877 0-7.02-3.143-7.02-7.02v-11.004c.001-3.878 3.143-7.02 7.02-7.02z"/></g></g></g><path d="m315.68 167.074v46.793c0-12.484-10.905-23.579-27.828-30.636-11.93-4.963-26.865-7.923-43.067-7.923-11.08 0-21.568 1.381-30.902 3.848-23.67 6.246-39.993 19.443-39.993 34.711v-46.793c0-15.269 16.324-28.466 39.993-34.711 9.334-2.466 19.822-3.848 30.902-3.848 16.202 0 31.137 2.96 43.067 7.923 16.923 7.058 27.828 18.153 27.828 30.636z" fill="#593375"/><path d="m315.68 167.074v46.793c0-12.484-10.905-23.579-27.828-30.636-11.93-4.963-26.865-7.923-43.067-7.923-11.08 0-21.568 1.381-30.902 3.848v-46.793c9.334-2.466 19.822-3.848 30.902-3.848 16.202 0 31.137 2.96 43.067 7.923 16.923 7.058 27.828 18.153 27.828 30.636z" fill="#8d71b3"/><path d="m263.423 360.302-18.434 44.365-18.433-44.365z" fill="#d54980"/><path d="m219.9 342.29-25.06 10.2c-7.72 3.14-13.85 9.25-17.01 16.96l-33.23 86.35c-1.44 3.86-3.18 7.3-5.16 10.35-12.75-6.09-24.89-13.25-36.3-21.37 9.34-15.45 19.18-30.88 23.08-37.65l39.88-55.27c4.34-6.01 11.29-9.57 18.69-9.57z" fill="#593375"/></g></g></g></svg>