<svg id="Layer_1" enable-background="new 0 0 512 512" height="512" viewBox="0 0 512 512" width="512" xmlns="http://www.w3.org/2000/svg"><g><path d="m487.212 348.181c8.922-25.409 13.79-52.726 13.79-81.183 0-135.311-109.691-245.002-245.002-245.002s-245.002 109.691-245.002 245.002c0 28.458 4.869 55.774 13.79 81.183z" fill="#73c3f9"/><path d="m24.084 92.362v253.819c9.28 27.187 23.207 52.221 40.831 74.157l147.791 87.84c14.054 2.506 28.52 3.822 43.294 3.822 107.6 0 198.993-69.367 231.916-165.819v-253.819z" fill="#e9efff"/><path d="m86.771 433.328c0-139.703 0-296.713 0-310.267 0-24.813 30.102-28.258 30.102-28.258 1.195-.769 2.294-1.587 3.31-2.441h-96.099v253.819c9.287 27.207 23.245 52.243 40.888 74.191z" fill="#d3dcfb"/><path d="m190.374 141.612h-102.203c-8.593 0-15.624 7.03-15.624 15.623v120.43c0 8.593 7.031 15.623 15.624 15.623h102.203c8.593 0 15.624-7.03 15.624-15.623v-120.43c-.001-8.593-7.031-15.623-15.624-15.623z" fill="#ffdd40"/><path d="m88.171 141.612c-8.593 0-15.623 7.03-15.623 15.623v120.43c0 8.593 7.03 15.623 15.623 15.623h41.995c.381-4.463 3.675-8.159 4.698-9.209.197-.202.307-.466.316-.748l3.469-108.888c.01-.305-.111-.601-.323-.821-9.145-9.48-2.514-16.913-.144-19.06.364-.33.477-.856.267-1.3-.339-.716-.153-1.407.08-1.88.206-.419.11-.913-.204-1.258-2.706-2.973-3.55-5.911-3.474-8.514h-46.68z" fill="#ffb332"/><path d="m190.374 340.73h-102.203c-8.593 0-15.623 7.031-15.623 15.623v73.014c8.759 9.889 18.311 19.056 28.544 27.421l39.663 26.448c6.214 3.319 12.584 6.386 19.104 9.17h30.515c8.593 0 15.623-7.03 15.623-15.624v-120.43c0-8.591-7.03-15.622-15.623-15.622z" fill="#ffdd40"/><path d="m88.171 340.73c-8.593 0-15.623 7.031-15.623 15.623v73.014c8.759 9.889 18.311 19.056 28.544 27.421l25.348 16.902 12.093-7.905v-112.734c-1.384-2.105.74-3.168.74-3.168-3.513-3.132-4.547-6.326-4.419-9.152h-46.683z" fill="#ffb332"/><path d="m462.828 0h-413.656c-13.856 0-25.088 11.233-25.088 25.088v35.601h463.833v-35.601c-.001-13.855-11.233-25.088-25.089-25.088z" fill="#2a428c"/><path d="m131.669 0h-82.497c-13.856 0-25.088 11.232-25.088 25.088v35.601h107.731c-.075-.776-.146-1.22-.146-1.22-11.178-11.178 0-19.786 0-19.786v-18.305c-12.198-12.198 0-21.378 0-21.378z" fill="#1c2e7a"/><g><path d="m68.71 42.731c-6.784 0-12.203-5.531-12.203-12.203 0-7.734 7.119-13.463 14.583-11.96 5.848 1.187 9.824 6.252 9.824 11.96-.001 6.508-5.245 12.203-12.204 12.203z" fill="#ff4155"/></g><g><path d="m102.574 42.731c-6.784 0-12.203-5.531-12.203-12.203 0-7.734 7.119-13.463 14.583-11.96 5.847 1.187 9.824 6.252 9.824 11.96 0 6.508-5.245 12.203-12.204 12.203z" fill="#ffdd40"/></g><g><path d="m136.439 42.731c-6.784 0-12.203-5.531-12.203-12.203 0-7.734 7.119-13.463 14.583-11.96 5.848 1.187 9.824 6.252 9.824 11.96-.001 6.508-5.246 12.203-12.204 12.203z" fill="#38c674"/></g><path d="m146.201 59.469c0 19.515-15.82 35.334-35.334 35.334h377.049v-35.334z" fill="#d3dcfb"/><path d="m148.642 59.469h-124.558v35.334h89.224c19.514 0 35.334-15.82 35.334-35.334z" fill="#4fabf7"/><path d="m138.935 267.295c10.113 0 18.756-6.406 22.089-15.373-.025-.006-.049-.012-.074-.018-3.405-3.405-4.268-9.859-4.423-14.376-1.777 2.07-3.642 3.801-5.424 5.184-3.471 2.696-7.755 4.16-12.168 4.16-4.412 0-8.696-1.464-12.167-4.16-1.782-1.384-3.647-3.115-5.424-5.184-.156 4.516-1.019 10.971-4.424 14.376-.025.006-.049.012-.074.018 3.333 8.967 11.976 15.373 22.089 15.373z" fill="#fcad6d"/><path d="m138.935 246.873c-4.412 0-8.696-1.464-12.167-4.16-1.782-1.384-3.647-3.115-5.424-5.184-.156 4.516-1.019 10.971-4.424 14.376-.025.006-.049.012-.074.018 2.056 5.532 6.138 10.084 11.335 12.763.089-.003.182-.008.264-.009.888-.019 1.762-.283 2.471-.816 5.529-4.156 7.4-12.217 8.033-16.987-.005-.002-.01-.001-.014-.001z" fill="#fd995b"/><path d="m72.548 270.724v6.941c0 8.593 7.031 15.623 15.624 15.623h102.203c8.593 0 15.624-7.03 15.624-15.623v-6.161c-3.97-4.641-9.687-8.07-17.948-8.746-2.27-.186-3.477-1.066-6.153-2.575-3.689-2.08-7.413-3.861-11.266-5.33-4.6 13.076-17.067 22.478-31.696 22.478-14.628 0-27.095-9.402-31.696-22.478-3.853 1.469-7.577 3.249-11.266 5.329-2.675 1.509-3.883 2.389-6.153 2.575-7.796.639-13.337 3.721-17.273 7.967z" fill="#4fabf7"/><path d="m104.522 284.136c0-7.652 7.947-10.693 12.233-11.777.947-.239 1.759-.796 2.331-1.55-5.401-3.973-9.581-9.514-11.846-15.954-3.853 1.469-7.577 3.249-11.266 5.329-2.675 1.509-3.883 2.389-6.153 2.575-7.796.637-13.336 3.72-17.272 7.965v6.941c0 8.593 7.03 15.623 15.623 15.623h12.041c2.629-3.391 4.309-6.617 4.309-9.152z" fill="#1e9ef4"/><g><path d="m133.051 154.298c-17.667 2.407-19.346 12.424-19.354 16.099-.002.771-.429 1.485-1.122 1.822-9.19 4.471-4.235 26.017-4.235 26.017.923.062 2.307.854 3.028 1.202.176-1.098.464-2.179.871-3.224.31-.796.697-1.601 1.182-2.36.84-1.319 1.223-2.874 1.109-4.429-.33-4.495-.59-12.934 5.344-15.604 5.026-2.262 11.192-.952 15.125.355 2.554.849 5.32.849 7.873 0 3.932-1.308 10.098-2.617 15.124-.355 5.916 2.662 5.673 11.058 5.347 15.565-.114 1.567.259 3.139 1.106 4.467.5.784.897 1.616 1.212 2.437.391 1.021.67 2.076.842 3.147.908-.44 2.624-1.337 3.735-1.18.136-4.711.571-9.79.571-9.79 5.234-25.642-18.735-36.761-37.758-34.169z" fill="#2a428c"/></g><path d="m138.183 154.563c.188-.171.306-.394.35-.632-1.852 0-3.689.122-5.482.366-17.667 2.407-19.346 12.424-19.354 16.099-.002.771-.429 1.485-1.122 1.822-9.19 4.471-4.235 26.017-4.235 26.017.923.062 2.307.854 3.028 1.202.176-1.098.464-2.179.871-3.224.31-.796.697-1.6 1.182-2.36.84-1.319 1.223-2.874 1.109-4.429-.33-4.495-.59-12.934 5.344-15.604 5.026-2.262 11.192-.952 15.125.355 1.182.393 2.41.596 3.64.625l.011-.359c.01-.305-.111-.601-.323-.821-9.144-9.477-2.514-16.91-.144-19.057z" fill="#1c2e7a"/><path d="m138.935 277.96c14.894 0 27.59-9.568 32.281-22.878-3.309-1.293-6.71-2.357-10.266-3.178-.146-.146-.282-.306-.419-.463-3.172 8.865-11.653 15.228-21.595 15.228s-18.423-6.362-21.595-15.227c-.137.157-.273.317-.42.463-3.556.821-6.957 1.885-10.266 3.178 4.69 13.309 17.385 22.877 32.28 22.877z" fill="#73c3f9"/><path d="m117.34 251.441c-.137.157-.273.317-.419.463-3.556.821-6.957 1.885-10.266 3.178 2.303 6.535 6.544 12.158 12.019 16.199.489-.477.865-1.07 1.079-1.743 1.334-4.203 6.358-4.812 8.694-4.862.311-.007.616-.055.917-.122-5.568-2.572-9.943-7.296-12.024-13.113z" fill="#4fabf7"/><path d="m171.804 198.87c-1.376-1.261-4.117-.622-5.302.15.26 1.617.274 3.271.05 4.904l-1.399 10.186c0 .821-.026 1.627-.073 2.418 3.41 1.029 5.104-2.033 5.39-4.134.123-.904.324-1.796.602-2.666.907-2.832 4.18-7.699.732-10.858z" fill="#fcad6d"/><path d="m106.066 198.87c1.376-1.261 4.117-.622 5.302.15-.259 1.617-.274 3.271-.05 4.904l1.398 10.186c0 .821.026 1.627.074 2.418-3.41 1.029-5.104-2.033-5.39-4.134-.123-.904-.324-1.796-.602-2.666-.907-2.832-4.18-7.699-.732-10.858z" fill="#fd995b"/><path d="m166.079 195.873c-.315-.821-.712-1.653-1.212-2.437-.847-1.329-1.219-2.9-1.106-4.467.326-4.507.151-13.321-5.765-15.983-5.026-2.262-11.192-.952-15.124.355-2.554.849-5.321.849-7.875 0-3.932-1.307-10.098-2.617-15.124-.355-5.933 2.67-6.092 11.527-5.762 16.022.114 1.555-.268 3.11-1.109 4.429-.484.76-.872 1.564-1.182 2.36-1.005 2.583-1.299 5.383-.922 8.126l1.399 10.188c0 14.647 7.819 24.602 14.469 29.767 3.471 2.696 7.755 4.16 12.168 4.16 4.412 0 8.696-1.464 12.167-4.16 6.651-5.165 14.469-15.12 14.469-29.767l1.399-10.186c.374-2.716.092-5.489-.89-8.052z" fill="#f9ba8f"/><g><path d="m147.144 243.877c-6.65-5.165-14.469-15.12-14.469-29.767l-1.399-10.188c-.377-2.742-.083-5.543.922-8.126.31-.796.697-1.6 1.182-2.36.841-1.319 1.223-2.874 1.109-4.429-.298-4.049-.183-11.623 4.177-15.04-1.24-.027-2.477-.23-3.668-.626-3.932-1.307-10.098-2.617-15.124-.355-5.933 2.67-6.092 11.527-5.762 16.022.114 1.555-.269 3.11-1.109 4.429-.484.76-.872 1.564-1.182 2.36-1.005 2.583-1.298 5.383-.922 8.126l1.399 10.188c0 14.647 7.819 24.602 14.469 29.767 3.471 2.696 7.755 4.16 12.167 4.16 3.609 0 7.125-.995 10.189-2.827-.681-.409-1.347-.844-1.979-1.334z" fill="#fcad6d"/></g><path d="m138.935 466.414c10.113 0 18.756-6.406 22.089-15.374-.025-.006-.049-.012-.074-.018-3.405-3.405-4.268-9.859-4.423-14.376-1.777 2.07-3.642 3.801-5.424 5.184-3.471 2.696-7.755 4.16-12.168 4.16-4.412 0-8.696-1.464-12.167-4.16-1.782-1.384-3.647-3.115-5.424-5.184-.156 4.516-1.019 10.971-4.424 14.376-.025.006-.049.012-.074.018 3.333 8.968 11.976 15.374 22.089 15.374z" fill="#fcad6d"/><path d="m138.935 445.991c-4.412 0-8.696-1.464-12.167-4.16-1.782-1.384-3.647-3.115-5.424-5.184-.156 4.516-1.019 10.971-4.424 14.376-.025.006-.049.012-.074.018 2.056 5.532 6.138 10.084 11.335 12.763.089-.003.182-.008.264-.009.888-.019 1.762-.283 2.471-.817 5.529-4.156 7.4-12.217 8.033-16.987-.005 0-.01 0-.014 0z" fill="#fd995b"/><g><path d="m133.051 353.417c-17.667 2.407-19.346 12.424-19.354 16.099-.002.771-.429 1.485-1.122 1.822-9.19 4.471-4.235 26.017-4.235 26.017.923.062 2.307.854 3.028 1.203.176-1.098.464-2.179.871-3.224.31-.796.697-1.601 1.182-2.36.84-1.318 1.223-2.874 1.109-4.429-.33-4.495-.59-12.934 5.344-15.604 5.026-2.262 11.192-.952 15.125.355 2.554.849 5.32.849 7.873 0 3.932-1.307 10.098-2.617 15.124-.355 5.916 2.662 5.673 11.058 5.347 15.565-.114 1.567.259 3.139 1.106 4.467.5.784.897 1.616 1.212 2.437.391 1.021.67 2.076.842 3.147.908-.44 2.624-1.337 3.735-1.18.136-4.711.571-9.79.571-9.79 5.234-25.643-18.735-36.762-37.758-34.17z" fill="#2a428c"/></g><path d="m138.183 353.682c.188-.171.306-.394.35-.632-1.852 0-3.689.122-5.482.366-17.667 2.407-19.346 12.424-19.354 16.099-.002.771-.429 1.485-1.122 1.822-9.19 4.471-4.235 26.017-4.235 26.017.923.062 2.307.854 3.028 1.203.176-1.098.464-2.179.871-3.224.31-.796.697-1.601 1.182-2.36.84-1.318 1.223-2.874 1.109-4.429-.33-4.495-.59-12.934 5.344-15.604 5.026-2.262 11.192-.952 15.125.355 1.182.393 2.41.596 3.64.625l.011-.359c.01-.305-.111-.601-.323-.821-9.144-9.478-2.514-16.912-.144-19.058z" fill="#1c2e7a"/><path d="m171.804 397.989c-1.376-1.261-4.117-.622-5.302.15.26 1.617.274 3.271.05 4.904l-1.399 10.186c0 .821-.026 1.627-.073 2.418 3.41 1.029 5.104-2.033 5.39-4.134.123-.905.324-1.796.602-2.666.907-2.833 4.18-7.699.732-10.858z" fill="#fcad6d"/><path d="m106.066 397.989c1.376-1.261 4.117-.622 5.302.15-.259 1.617-.274 3.271-.05 4.904l1.398 10.186c0 .821.026 1.627.074 2.418-3.41 1.029-5.104-2.033-5.39-4.134-.123-.905-.324-1.796-.602-2.666-.907-2.833-4.18-7.699-.732-10.858z" fill="#fd995b"/><path d="m166.079 394.992c-.315-.821-.712-1.653-1.212-2.437-.847-1.329-1.219-2.9-1.106-4.467.326-4.507.151-13.321-5.765-15.983-5.026-2.262-11.192-.952-15.124.355-2.554.849-5.321.849-7.875 0-3.932-1.307-10.098-2.617-15.124-.355-5.933 2.67-6.092 11.527-5.762 16.022.114 1.555-.268 3.11-1.109 4.429-.484.76-.872 1.564-1.182 2.36-1.005 2.583-1.299 5.383-.922 8.126l1.399 10.188c0 14.647 7.819 24.602 14.469 29.767 3.471 2.696 7.755 4.16 12.168 4.16 4.412 0 8.696-1.464 12.167-4.16 6.651-5.165 14.469-15.12 14.469-29.767l1.399-10.186c.374-2.716.092-5.489-.89-8.052z" fill="#f9ba8f"/><g><path d="m147.144 442.996c-6.65-5.165-14.469-15.12-14.469-29.767l-1.399-10.188c-.377-2.742-.083-5.543.922-8.126.31-.796.697-1.6 1.182-2.36.841-1.319 1.223-2.874 1.109-4.429-.298-4.049-.183-11.623 4.177-15.04-1.24-.027-2.477-.23-3.668-.626-3.932-1.307-10.098-2.617-15.124-.355-5.933 2.67-6.092 11.527-5.762 16.022.114 1.555-.269 3.11-1.109 4.429-.484.76-.872 1.564-1.182 2.36-1.005 2.583-1.298 5.383-.922 8.126l1.399 10.188c0 14.647 7.819 24.602 14.469 29.767 3.471 2.696 7.755 4.16 12.167 4.16 3.609 0 7.125-.995 10.189-2.827-.681-.409-1.347-.844-1.979-1.334z" fill="#fcad6d"/></g><path d="m188.049 461.878c-2.27-.186-3.477-1.066-6.153-2.575-3.689-2.08-7.413-3.861-11.266-5.33-4.6 13.076-17.067 22.478-31.695 22.478s-27.095-9.402-31.696-22.478c-2.128.811-4.215 1.727-6.28 2.727 17.733 14.51 37.535 26.583 58.899 35.707h30.515c8.593 0 15.623-7.03 15.623-15.624v-6.161c-3.968-4.64-9.686-8.069-17.947-8.744z" fill="#4fabf7"/><path d="m120.603 471.198c.003-.076.01-.148.015-.223-6.139-4.016-10.904-9.968-13.378-17.002-2.128.811-4.215 1.727-6.28 2.727 6.292 5.15 12.851 9.985 19.643 14.498z" fill="#1e9ef4"/><path d="m138.935 477.078c14.894 0 27.59-9.568 32.281-22.878-3.309-1.293-6.71-2.358-10.266-3.178-.146-.147-.282-.306-.419-.464-3.172 8.866-11.653 15.228-21.595 15.228s-18.423-6.362-21.595-15.227c-.137.157-.273.317-.42.463-3.556.82-6.957 1.885-10.266 3.178 4.69 13.311 17.385 22.878 32.28 22.878z" fill="#73c3f9"/><g><path d="m448.64 39.682h-19.936c-5.055 0-9.152-4.097-9.152-9.152s4.098-9.152 9.152-9.152h19.936c5.055 0 9.152 4.097 9.152 9.152s-4.097 9.152-9.152 9.152z" fill="#4b6bb2"/></g><g><path d="m381.11 39.682h-206.231c-5.055 0-9.152-4.097-9.152-9.152s4.098-9.152 9.152-9.152h206.231c5.055 0 9.152 4.097 9.152 9.152s-4.097 9.152-9.152 9.152z" fill="#4b6bb2"/></g><g><path d="m347.202 174.106h-72.694c-5.055 0-9.153-4.097-9.153-9.152s4.098-9.152 9.153-9.152h72.694c5.055 0 9.152 4.097 9.152 9.152.001 5.055-4.097 9.152-9.152 9.152z" fill="#ff7186"/></g><g><path d="m427.875 208.627h-153.366c-5.055 0-9.153-4.097-9.153-9.152s4.098-9.152 9.153-9.152h153.367c5.055 0 9.152 4.097 9.152 9.152s-4.098 9.152-9.153 9.152z" fill="#bec8f7"/></g><g><path d="m427.875 243.147h-153.366c-5.055 0-9.153-4.097-9.153-9.153 0-5.055 4.098-9.152 9.153-9.152h153.367c5.055 0 9.152 4.097 9.152 9.152s-4.098 9.153-9.153 9.153z" fill="#bec8f7"/></g><g><path d="m427.875 277.666h-153.366c-5.055 0-9.153-4.097-9.153-9.152s4.098-9.152 9.153-9.152h153.367c5.055 0 9.152 4.097 9.152 9.152s-4.098 9.152-9.153 9.152z" fill="#bec8f7"/></g><g><path d="m347.202 373.225h-72.694c-5.055 0-9.153-4.097-9.153-9.152s4.098-9.152 9.153-9.152h72.694c5.055 0 9.152 4.097 9.152 9.152s-4.097 9.152-9.152 9.152z" fill="#ff7186"/></g><path d="m312.377 164.954c0-5.055 4.098-9.152 9.152-9.152h-47.021c-5.055 0-9.153 4.097-9.153 9.152s4.098 9.152 9.153 9.152h47.021c-5.054 0-9.152-4.097-9.152-9.152z" fill="#ff4155"/><path d="m312.377 364.073c0-5.055 4.098-9.152 9.152-9.152h-47.021c-5.055 0-9.153 4.097-9.153 9.152s4.098 9.152 9.153 9.152h47.021c-5.054 0-9.152-4.097-9.152-9.152z" fill="#ff4155"/><g><path d="m427.875 407.745h-153.366c-5.055 0-9.153-4.097-9.153-9.153 0-5.055 4.098-9.152 9.153-9.152h153.367c5.055 0 9.152 4.097 9.152 9.152 0 5.056-4.098 9.153-9.153 9.153z" fill="#bec8f7"/></g><path d="m436.975 432.14c-.486-4.598-4.374-8.18-9.1-8.18h-153.366c-5.055 0-9.153 4.097-9.153 9.152s4.098 9.152 9.153 9.152h152.66c3.361-3.282 6.637-6.653 9.806-10.124z" fill="#bec8f7"/><path d="m274.509 458.48c-5.055 0-9.153 4.097-9.153 9.153s4.098 9.152 9.153 9.152h108.103c9.151-5.534 17.903-11.658 26.22-18.305z" fill="#bec8f7"/><g><path d="m190.374 302.441h-102.203c-13.661 0-24.776-11.114-24.776-24.776v-120.43c0-13.662 11.115-24.776 24.776-24.776h102.203c13.661 0 24.775 11.114 24.775 24.776v120.43c.001 13.662-11.113 24.776-24.775 24.776zm-102.203-151.677c-3.508 0-6.471 2.964-6.471 6.471v120.43c0 3.507 2.963 6.471 6.471 6.471h102.203c3.568 0 6.471-2.903 6.471-6.471v-120.43c0-3.568-2.902-6.471-6.471-6.471z" fill="#ffe98d"/></g><path d="m88.171 284.136c-3.508 0-6.471-2.964-6.471-6.471v-120.43c0-3.507 2.963-6.471 6.471-6.471h50.452c-.032-.232-.132-.456-.298-.638-6.963-7.65-1.628-15.08.111-17.12.136-.16.216-.35.248-.548h-50.513c-13.661 0-24.776 11.114-24.776 24.776v120.43c0 13.662 11.115 24.776 24.776 24.776h46.374c-9.137-7.622-1.523-16.453.265-18.305h-46.639z" fill="#ffdd40"/><path d="m190.374 331.578h-102.203c-13.661 0-24.776 11.114-24.776 24.776v62.081c5.709 7.252 11.827 14.165 18.305 20.723v-82.804c0-3.568 2.903-6.471 6.471-6.471h102.203c3.568 0 6.471 2.903 6.471 6.471v120.43c0 3.568-2.903 6.471-6.471 6.471h-49.592c14.009 7.479 28.828 13.635 44.295 18.305h5.297c13.661 0 24.776-11.114 24.776-24.776v-120.43c0-13.662-11.114-24.776-24.776-24.776z" fill="#ffe98d"/><path d="m139.273 331.578h-51.102c-13.661 0-24.776 11.114-24.776 24.776v62.081c5.709 7.252 11.827 14.165 18.305 20.723v-82.804c0-3.568 2.903-6.471 6.471-6.471h51.101c-9.977-8.898.001-18.305.001-18.305z" fill="#ffdd40"/><path d="m239.141 242.14c-5.178-3.595-9.045-8.606-11.217-14.543-.452-1.237-1.477-2.19-2.761-2.483-12.592-2.872-25.74-2.872-38.332 0-1.284.293-2.309 1.246-2.761 2.483-2.172 5.937-6.039 10.948-11.217 14.543-1.057.734-1.696 1.93-1.696 3.216v15.276c0 12.13 3.605 23.768 10.425 33.656 5.834 8.458 13.649 15.1 22.798 19.419 1.02.482 2.213.482 3.232 0 9.145-4.318 16.959-10.957 22.793-19.413 6.824-9.889 10.43-21.53 10.43-33.662v-15.276c.002-1.286-.637-2.482-1.694-3.216z" fill="#38c674"/><path d="m212.95 275.274-18.193-17.428c-16.69-4.943-13.915-23.852-13.915-23.852l-.005-.002c-2.105 3.176-4.793 5.932-7.984 8.147-1.057.734-1.696 1.93-1.696 3.216v15.276c0 12.13 3.605 23.768 10.425 33.656 5.834 8.458 13.649 15.1 22.798 19.419 1.02.482 2.213.482 3.233 0 9.145-4.318 16.959-10.957 22.793-19.413-18.464.001-17.456-19.019-17.456-19.019z" fill="#24b55e"/><g><path d="m198.329 279.276-8.624-8.624c-2.932-2.932-2.933-7.687 0-10.619 2.932-2.933 7.687-2.932 10.619-.001l3.314 3.315 8.033-8.033c2.933-2.931 7.687-2.932 10.619.001 2.933 2.932 2.933 7.687 0 10.619l-13.342 13.342c-2.934 2.933-7.687 2.931-10.619 0z" fill="#e9efff"/></g><path d="m239.141 441.259c-5.178-3.595-9.044-8.606-11.217-14.543-.452-1.237-1.477-2.19-2.761-2.483-12.592-2.872-25.74-2.872-38.332 0-1.284.293-2.309 1.246-2.761 2.483-2.172 5.937-6.039 10.948-11.217 14.543-1.057.734-1.695 1.93-1.695 3.216v15.276c0 12.13 3.605 23.768 10.425 33.656 2.425 3.517 5.211 6.698 8.275 9.55 8.232 2.303 16.641 4.178 25.199 5.618 5.968-4.006 11.174-9.109 15.35-15.162 6.824-9.889 10.43-21.53 10.43-33.662v-15.276c0-1.286-.639-2.482-1.696-3.216z" fill="#38c674"/><path d="m212.95 474.393-18.193-17.428c-16.69-4.943-13.915-23.852-13.915-23.852l-.005-.002c-2.105 3.176-4.793 5.932-7.984 8.147-1.057.734-1.695 1.93-1.695 3.216v15.276c0 12.13 3.605 23.768 10.425 33.656 2.425 3.517 5.211 6.698 8.275 9.55 8.232 2.303 16.641 4.178 25.199 5.618 5.968-4.006 11.174-9.109 15.35-15.162-18.466.001-17.457-19.019-17.457-19.019z" fill="#24b55e"/><g><path d="m198.328 478.395-8.624-8.624c-2.932-2.932-2.933-7.687 0-10.619 2.932-2.933 7.687-2.932 10.619-.001l3.314 3.315 8.033-8.033c2.933-2.931 7.687-2.932 10.619.001 2.933 2.932 2.933 7.687 0 10.619l-13.342 13.342c-2.933 2.933-7.686 2.932-10.619 0z" fill="#e9efff"/></g><path d="m117.34 450.559c-.137.157-.273.317-.419.463-3.556.82-6.957 1.885-10.266 3.178 2.567 7.283 7.541 13.431 13.95 17.518-.198-7.393 9.015-7.915 9.015-7.915l-.007-.016c-5.687-2.543-10.161-7.323-12.273-13.228z" fill="#4fabf7"/></g></svg>